%TF.GenerationSoftware,KiCad,Pcbnew,10.0.5*%
%TF.CreationDate,2026-08-26T23:26:56+01:00*%
%TF.ProjectId,bazauto-block-detection,62617a61-7574-46f2-9d62-6c6f636b2d64,rev?*%
%TF.SameCoordinates,Original*%
%TF.FileFunction,Copper,L2,Bot*%
%TF.FilePolarity,Positive*%
%FSLAX46Y46*%
G04 Gerber Fmt 4.6, Leading zero omitted, Abs format (unit mm)*
G04 Created by KiCad (PCBNEW 10.0.5) date 2026-08-26 23:26:56*
%MOMM*%
%LPD*%
G01*
G04 APERTURE LIST*
G04 Aperture macros list*
%AMRoundRect*
0 Rectangle with rounded corners*
0 $1 Rounding radius*
0 $2 $3 $4 $5 $6 $7 $8 $9 X,Y pos of 4 corners*
0 Add a 4 corners polygon primitive as box body*
4,1,4,$2,$3,$4,$5,$6,$7,$8,$9,$2,$3,0*
0 Add four circle primitives for the rounded corners*
1,1,$1+$1,$2,$3*
1,1,$1+$1,$4,$5*
1,1,$1+$1,$6,$7*
1,1,$1+$1,$8,$9*
0 Add four rect primitives between the rounded corners*
20,1,$1+$1,$2,$3,$4,$5,0*
20,1,$1+$1,$4,$5,$6,$7,0*
20,1,$1+$1,$6,$7,$8,$9,0*
20,1,$1+$1,$8,$9,$2,$3,0*%
G04 Aperture macros list end*
%TA.AperFunction,ComponentPad*%
%ADD10RoundRect,0.250001X-0.949999X0.949999X-0.949999X-0.949999X0.949999X-0.949999X0.949999X0.949999X0*%
%TD*%
%TA.AperFunction,ComponentPad*%
%ADD11C,2.400000*%
%TD*%
%TA.AperFunction,ComponentPad*%
%ADD12R,1.700000X1.700000*%
%TD*%
%TA.AperFunction,ComponentPad*%
%ADD13C,1.700000*%
%TD*%
%TA.AperFunction,ViaPad*%
%ADD14C,0.800000*%
%TD*%
%TA.AperFunction,ViaPad*%
%ADD15C,0.600000*%
%TD*%
%TA.AperFunction,Conductor*%
%ADD16C,0.250000*%
%TD*%
G04 APERTURE END LIST*
D10*
%TO.P,J2,1*%
%TO.N,/CT2*%
X36000000Y-58000000D03*
D11*
%TO.P,J2,2*%
%TO.N,GND*%
X36000000Y-61500000D03*
%TD*%
D10*
%TO.P,J1,1*%
%TO.N,/CT1*%
X36000000Y-40000000D03*
D11*
%TO.P,J1,2*%
%TO.N,GND*%
X36000000Y-43500000D03*
%TD*%
D12*
%TO.P,J3,1*%
%TO.N,+3V3*%
X75000000Y-45190000D03*
D13*
%TO.P,J3,2*%
%TO.N,/OUT1*%
X75000000Y-47730000D03*
%TO.P,J3,3*%
%TO.N,/OUT2*%
X75000000Y-50270000D03*
%TO.P,J3,4*%
%TO.N,GND*%
X75000000Y-52810000D03*
%TD*%
D12*
%TO.P,JP1,1*%
%TO.N,Net-(JP1-Pin_1)*%
X43400000Y-46900000D03*
D13*
%TO.P,JP1,2*%
%TO.N,GND*%
X43400000Y-49440000D03*
%TD*%
D14*
%TO.N,GND*%
X74000000Y-32600000D03*
X56750000Y-43900000D03*
X54000000Y-65800000D03*
X41200000Y-53600000D03*
X66000000Y-32600000D03*
X68250000Y-50300000D03*
X69600000Y-46250000D03*
X74000000Y-65800000D03*
X41200000Y-44400000D03*
X66000000Y-65800000D03*
X39000000Y-49200000D03*
X54400000Y-50500000D03*
X61000000Y-32600000D03*
X51400000Y-40700000D03*
X60800000Y-46888000D03*
X65384999Y-59000000D03*
X42000000Y-62500000D03*
X49878000Y-59800000D03*
X57950000Y-50500000D03*
X56750000Y-52600000D03*
X54000000Y-32600000D03*
X39000000Y-64000000D03*
X39000000Y-36000000D03*
X65384999Y-40500000D03*
X46800000Y-46888000D03*
X61000000Y-65800000D03*
X54550000Y-44888000D03*
X54550000Y-53638000D03*
X42000000Y-52000000D03*
X58000000Y-65800000D03*
D15*
%TO.N,+3V3*%
X50200000Y-54000000D03*
X50200000Y-52000000D03*
%TO.N,/OUT1*%
X73800000Y-48300000D03*
X72200000Y-48300000D03*
%TO.N,/OUT2*%
X63450000Y-52600000D03*
X61900000Y-52600000D03*
%TO.N,Net-(R7-Pad1)*%
X51500000Y-52750000D03*
X51500000Y-56200000D03*
%TD*%
%TO.N,+3V3*%
D16*
X50200000Y-52000000D02*
X50200000Y-54000000D01*
%TO.N,/OUT1*%
X72200000Y-48300000D02*
X73800000Y-48300000D01*
%TO.N,/OUT2*%
X61900000Y-52600000D02*
X63450000Y-52600000D01*
%TO.N,Net-(R7-Pad1)*%
X51500000Y-52750000D02*
X51500000Y-56200000D01*
%TD*%
%TA.AperFunction,Conductor*%
%TO.N,GND*%
G36*
X77477826Y-30522174D02*
G01*
X77499500Y-30574500D01*
X77499500Y-67425500D01*
X77477826Y-67477826D01*
X77425500Y-67499500D01*
X30574500Y-67499500D01*
X30522174Y-67477826D01*
X30500500Y-67425500D01*
X30500500Y-65093711D01*
X42649500Y-65093711D01*
X42649500Y-65306288D01*
X42682753Y-65516240D01*
X42682756Y-65516253D01*
X42748440Y-65718406D01*
X42844948Y-65907816D01*
X42921475Y-66013146D01*
X42969896Y-66079792D01*
X43120208Y-66230104D01*
X43215656Y-66299451D01*
X43292183Y-66355051D01*
X43383474Y-66401565D01*
X43481588Y-66451557D01*
X43481590Y-66451557D01*
X43481593Y-66451559D01*
X43683746Y-66517243D01*
X43683752Y-66517244D01*
X43683757Y-66517246D01*
X43788735Y-66533873D01*
X43893711Y-66550500D01*
X43893713Y-66550500D01*
X44106289Y-66550500D01*
X44190269Y-66537198D01*
X44316243Y-66517246D01*
X44316250Y-66517243D01*
X44316253Y-66517243D01*
X44518406Y-66451559D01*
X44518406Y-66451558D01*
X44518412Y-66451557D01*
X44707816Y-66355051D01*
X44879792Y-66230104D01*
X45030104Y-66079792D01*
X45155051Y-65907816D01*
X45251557Y-65718412D01*
X45317246Y-65516243D01*
X45350500Y-65306287D01*
X45350500Y-65093713D01*
X45350500Y-65093711D01*
X66649500Y-65093711D01*
X66649500Y-65306288D01*
X66682753Y-65516240D01*
X66682756Y-65516253D01*
X66748440Y-65718406D01*
X66844948Y-65907816D01*
X66921475Y-66013146D01*
X66969896Y-66079792D01*
X67120208Y-66230104D01*
X67215656Y-66299451D01*
X67292183Y-66355051D01*
X67383474Y-66401565D01*
X67481588Y-66451557D01*
X67481590Y-66451557D01*
X67481593Y-66451559D01*
X67683746Y-66517243D01*
X67683752Y-66517244D01*
X67683757Y-66517246D01*
X67788735Y-66533873D01*
X67893711Y-66550500D01*
X67893713Y-66550500D01*
X68106289Y-66550500D01*
X68190269Y-66537198D01*
X68316243Y-66517246D01*
X68316250Y-66517243D01*
X68316253Y-66517243D01*
X68518406Y-66451559D01*
X68518406Y-66451558D01*
X68518412Y-66451557D01*
X68707816Y-66355051D01*
X68879792Y-66230104D01*
X69030104Y-66079792D01*
X69155051Y-65907816D01*
X69251557Y-65718412D01*
X69317246Y-65516243D01*
X69350500Y-65306287D01*
X69350500Y-65093713D01*
X69317246Y-64883757D01*
X69317244Y-64883752D01*
X69317243Y-64883746D01*
X69251559Y-64681593D01*
X69251557Y-64681590D01*
X69251557Y-64681588D01*
X69201565Y-64583474D01*
X69155051Y-64492183D01*
X69099451Y-64415656D01*
X69030104Y-64320208D01*
X68879792Y-64169896D01*
X68813146Y-64121475D01*
X68707816Y-64044948D01*
X68518406Y-63948440D01*
X68316253Y-63882756D01*
X68316240Y-63882753D01*
X68106289Y-63849500D01*
X68106287Y-63849500D01*
X67893713Y-63849500D01*
X67893711Y-63849500D01*
X67683759Y-63882753D01*
X67683746Y-63882756D01*
X67481593Y-63948440D01*
X67292183Y-64044948D01*
X67120212Y-64169893D01*
X67120208Y-64169896D01*
X66969896Y-64320208D01*
X66969893Y-64320211D01*
X66969893Y-64320212D01*
X66844948Y-64492183D01*
X66748440Y-64681593D01*
X66682756Y-64883746D01*
X66682753Y-64883759D01*
X66649500Y-65093711D01*
X45350500Y-65093711D01*
X45317246Y-64883757D01*
X45317244Y-64883752D01*
X45317243Y-64883746D01*
X45251559Y-64681593D01*
X45251557Y-64681590D01*
X45251557Y-64681588D01*
X45201565Y-64583474D01*
X45155051Y-64492183D01*
X45099451Y-64415656D01*
X45030104Y-64320208D01*
X44879792Y-64169896D01*
X44813146Y-64121475D01*
X44707816Y-64044948D01*
X44518406Y-63948440D01*
X44316253Y-63882756D01*
X44316240Y-63882753D01*
X44106289Y-63849500D01*
X44106287Y-63849500D01*
X43893713Y-63849500D01*
X43893711Y-63849500D01*
X43683759Y-63882753D01*
X43683746Y-63882756D01*
X43481593Y-63948440D01*
X43292183Y-64044948D01*
X43120212Y-64169893D01*
X43120208Y-64169896D01*
X42969896Y-64320208D01*
X42969893Y-64320211D01*
X42969893Y-64320212D01*
X42844948Y-64492183D01*
X42748440Y-64681593D01*
X42682756Y-64883746D01*
X42682753Y-64883759D01*
X42649500Y-65093711D01*
X30500500Y-65093711D01*
X30500500Y-61381946D01*
X34500000Y-61381946D01*
X34500000Y-61618053D01*
X34536934Y-61851248D01*
X34536937Y-61851261D01*
X34609892Y-62075792D01*
X34717084Y-62286170D01*
X34807095Y-62410059D01*
X35457241Y-61759913D01*
X35519881Y-61868408D01*
X35631592Y-61980119D01*
X35740084Y-62042757D01*
X35089939Y-62692903D01*
X35213829Y-62782915D01*
X35424207Y-62890107D01*
X35648738Y-62963062D01*
X35648751Y-62963065D01*
X35881946Y-63000000D01*
X36118054Y-63000000D01*
X36351248Y-62963065D01*
X36351261Y-62963062D01*
X36575792Y-62890107D01*
X36786172Y-62782913D01*
X36910059Y-62692903D01*
X36259915Y-62042757D01*
X36368408Y-61980119D01*
X36480119Y-61868408D01*
X36542758Y-61759914D01*
X37192903Y-62410059D01*
X37282913Y-62286172D01*
X37390107Y-62075792D01*
X37463062Y-61851261D01*
X37463065Y-61851248D01*
X37500000Y-61618053D01*
X37500000Y-61381946D01*
X37463065Y-61148751D01*
X37463062Y-61148738D01*
X37390107Y-60924207D01*
X37282915Y-60713829D01*
X37192903Y-60589939D01*
X36542757Y-61240083D01*
X36480119Y-61131592D01*
X36368408Y-61019881D01*
X36259913Y-60957241D01*
X36910059Y-60307095D01*
X36786170Y-60217084D01*
X36575792Y-60109892D01*
X36351261Y-60036937D01*
X36351248Y-60036934D01*
X36118054Y-60000000D01*
X35881946Y-60000000D01*
X35648751Y-60036934D01*
X35648738Y-60036937D01*
X35424207Y-60109892D01*
X35213828Y-60217084D01*
X35089939Y-60307096D01*
X35740085Y-60957242D01*
X35631592Y-61019881D01*
X35519881Y-61131592D01*
X35457242Y-61240085D01*
X34807096Y-60589939D01*
X34717084Y-60713828D01*
X34609892Y-60924207D01*
X34536937Y-61148738D01*
X34536934Y-61148751D01*
X34500000Y-61381946D01*
X30500500Y-61381946D01*
X30500500Y-56995735D01*
X34599500Y-56995735D01*
X34599500Y-56995736D01*
X34599500Y-56995741D01*
X34599500Y-59004255D01*
X34599501Y-59004268D01*
X34602353Y-59034695D01*
X34602355Y-59034704D01*
X34647205Y-59162880D01*
X34647207Y-59162883D01*
X34727846Y-59272146D01*
X34727853Y-59272153D01*
X34837116Y-59352792D01*
X34837119Y-59352794D01*
X34965292Y-59397643D01*
X34965299Y-59397645D01*
X34965302Y-59397646D01*
X34995735Y-59400500D01*
X37004264Y-59400499D01*
X37034698Y-59397646D01*
X37034707Y-59397643D01*
X37162880Y-59352794D01*
X37162883Y-59352792D01*
X37272146Y-59272153D01*
X37272146Y-59272152D01*
X37272150Y-59272150D01*
X37352793Y-59162882D01*
X37397646Y-59034698D01*
X37400500Y-59004265D01*
X37400499Y-56995736D01*
X37397646Y-56965302D01*
X37397643Y-56965292D01*
X37352794Y-56837119D01*
X37352792Y-56837116D01*
X37272153Y-56727853D01*
X37272146Y-56727846D01*
X37162883Y-56647207D01*
X37162880Y-56647205D01*
X37034707Y-56602356D01*
X37034700Y-56602354D01*
X37027935Y-56601719D01*
X37004265Y-56599500D01*
X37004258Y-56599500D01*
X34995744Y-56599500D01*
X34995731Y-56599501D01*
X34965304Y-56602353D01*
X34965295Y-56602355D01*
X34837119Y-56647205D01*
X34837116Y-56647207D01*
X34727853Y-56727846D01*
X34727846Y-56727853D01*
X34647207Y-56837116D01*
X34647205Y-56837119D01*
X34602356Y-56965292D01*
X34602354Y-56965299D01*
X34602354Y-56965302D01*
X34599500Y-56995735D01*
X30500500Y-56995735D01*
X30500500Y-51934105D01*
X49699500Y-51934105D01*
X49699500Y-52065894D01*
X49733606Y-52193181D01*
X49733610Y-52193190D01*
X49799500Y-52307314D01*
X49852826Y-52360640D01*
X49874500Y-52412966D01*
X49874500Y-53587034D01*
X49852826Y-53639360D01*
X49799500Y-53692685D01*
X49733610Y-53806809D01*
X49733606Y-53806818D01*
X49699500Y-53934105D01*
X49699500Y-54065894D01*
X49733606Y-54193181D01*
X49733607Y-54193184D01*
X49733608Y-54193186D01*
X49799500Y-54307314D01*
X49892686Y-54400500D01*
X50006814Y-54466392D01*
X50134105Y-54500499D01*
X50134106Y-54500500D01*
X50134108Y-54500500D01*
X50265894Y-54500500D01*
X50265894Y-54500499D01*
X50393186Y-54466392D01*
X50507314Y-54400500D01*
X50600500Y-54307314D01*
X50666392Y-54193186D01*
X50700499Y-54065894D01*
X50700500Y-54065894D01*
X50700500Y-53934106D01*
X50700499Y-53934105D01*
X50684862Y-53875748D01*
X50666392Y-53806814D01*
X50600500Y-53692686D01*
X50547174Y-53639360D01*
X50525500Y-53587034D01*
X50525500Y-52684105D01*
X50999500Y-52684105D01*
X50999500Y-52815894D01*
X51033606Y-52943181D01*
X51033610Y-52943190D01*
X51099500Y-53057314D01*
X51152826Y-53110640D01*
X51174500Y-53162966D01*
X51174500Y-55787034D01*
X51152826Y-55839360D01*
X51099500Y-55892685D01*
X51033610Y-56006809D01*
X51033606Y-56006818D01*
X50999500Y-56134105D01*
X50999500Y-56265894D01*
X51033606Y-56393181D01*
X51033607Y-56393184D01*
X51033608Y-56393186D01*
X51099500Y-56507314D01*
X51192686Y-56600500D01*
X51306814Y-56666392D01*
X51434105Y-56700499D01*
X51434106Y-56700500D01*
X51434108Y-56700500D01*
X51565894Y-56700500D01*
X51565894Y-56700499D01*
X51693186Y-56666392D01*
X51807314Y-56600500D01*
X51900500Y-56507314D01*
X51966392Y-56393186D01*
X52000499Y-56265894D01*
X52000500Y-56265894D01*
X52000500Y-56134106D01*
X52000499Y-56134105D01*
X51966393Y-56006818D01*
X51966392Y-56006814D01*
X51900500Y-55892686D01*
X51847174Y-55839360D01*
X51825500Y-55787034D01*
X51825500Y-53162966D01*
X51847174Y-53110640D01*
X51864972Y-53092842D01*
X51900500Y-53057314D01*
X51966392Y-52943186D01*
X52000499Y-52815894D01*
X52000500Y-52815894D01*
X52000500Y-52684106D01*
X52000499Y-52684105D01*
X51966392Y-52556814D01*
X51953281Y-52534106D01*
X51953280Y-52534105D01*
X61399500Y-52534105D01*
X61399500Y-52665894D01*
X61433606Y-52793181D01*
X61433610Y-52793190D01*
X61481320Y-52875826D01*
X61499500Y-52907314D01*
X61592686Y-53000500D01*
X61706814Y-53066392D01*
X61834105Y-53100499D01*
X61834106Y-53100500D01*
X61834108Y-53100500D01*
X61965894Y-53100500D01*
X61965894Y-53100499D01*
X62093186Y-53066392D01*
X62207314Y-53000500D01*
X62260640Y-52947174D01*
X62312966Y-52925500D01*
X63037034Y-52925500D01*
X63089360Y-52947174D01*
X63142686Y-53000500D01*
X63256814Y-53066392D01*
X63384105Y-53100499D01*
X63384106Y-53100500D01*
X63384108Y-53100500D01*
X63515894Y-53100500D01*
X63515894Y-53100499D01*
X63643186Y-53066392D01*
X63757314Y-53000500D01*
X63850500Y-52907314D01*
X63916392Y-52793186D01*
X63936138Y-52719491D01*
X73850000Y-52719491D01*
X73850000Y-52900508D01*
X73878316Y-53079289D01*
X73878319Y-53079302D01*
X73934251Y-53251443D01*
X74016431Y-53412728D01*
X74057668Y-53469487D01*
X74531980Y-52995174D01*
X74534075Y-53002993D01*
X74599901Y-53117007D01*
X74692993Y-53210099D01*
X74807007Y-53275925D01*
X74814822Y-53278019D01*
X74340511Y-53752331D01*
X74397266Y-53793566D01*
X74558556Y-53875748D01*
X74558555Y-53875748D01*
X74730697Y-53931680D01*
X74730710Y-53931683D01*
X74909491Y-53960000D01*
X75090509Y-53960000D01*
X75269289Y-53931683D01*
X75269302Y-53931680D01*
X75441443Y-53875748D01*
X75602729Y-53793568D01*
X75659487Y-53752331D01*
X75185176Y-53278019D01*
X75192993Y-53275925D01*
X75307007Y-53210099D01*
X75400099Y-53117007D01*
X75465925Y-53002993D01*
X75468019Y-52995176D01*
X75942331Y-53469487D01*
X75983568Y-53412729D01*
X76065748Y-53251443D01*
X76121680Y-53079302D01*
X76121683Y-53079289D01*
X76150000Y-52900508D01*
X76150000Y-52719491D01*
X76121683Y-52540710D01*
X76121680Y-52540697D01*
X76065748Y-52368556D01*
X75983566Y-52207267D01*
X75983566Y-52207266D01*
X75942331Y-52150511D01*
X75468019Y-52624822D01*
X75465925Y-52617007D01*
X75400099Y-52502993D01*
X75307007Y-52409901D01*
X75192993Y-52344075D01*
X75185174Y-52341980D01*
X75659487Y-51867668D01*
X75602728Y-51826431D01*
X75441443Y-51744251D01*
X75441444Y-51744251D01*
X75269302Y-51688319D01*
X75269289Y-51688316D01*
X75090509Y-51660000D01*
X74909491Y-51660000D01*
X74730710Y-51688316D01*
X74730697Y-51688319D01*
X74558558Y-51744250D01*
X74397268Y-51826431D01*
X74340511Y-51867667D01*
X74340511Y-51867668D01*
X74814823Y-52341980D01*
X74807007Y-52344075D01*
X74692993Y-52409901D01*
X74599901Y-52502993D01*
X74534075Y-52617007D01*
X74531980Y-52624823D01*
X74057668Y-52150511D01*
X74057667Y-52150511D01*
X74016431Y-52207268D01*
X73934250Y-52368558D01*
X73878319Y-52540697D01*
X73878316Y-52540710D01*
X73850000Y-52719491D01*
X63936138Y-52719491D01*
X63950499Y-52665894D01*
X63950500Y-52665894D01*
X63950500Y-52534106D01*
X63950499Y-52534105D01*
X63926003Y-52442685D01*
X63916392Y-52406814D01*
X63850500Y-52292686D01*
X63757314Y-52199500D01*
X63672463Y-52150511D01*
X63643190Y-52133610D01*
X63643181Y-52133606D01*
X63515894Y-52099500D01*
X63515892Y-52099500D01*
X63384108Y-52099500D01*
X63384106Y-52099500D01*
X63256818Y-52133606D01*
X63256809Y-52133610D01*
X63142685Y-52199500D01*
X63089360Y-52252826D01*
X63037034Y-52274500D01*
X62312966Y-52274500D01*
X62260640Y-52252826D01*
X62207314Y-52199500D01*
X62093190Y-52133610D01*
X62093181Y-52133606D01*
X61965894Y-52099500D01*
X61965892Y-52099500D01*
X61834108Y-52099500D01*
X61834106Y-52099500D01*
X61706818Y-52133606D01*
X61706809Y-52133610D01*
X61592685Y-52199500D01*
X61499500Y-52292685D01*
X61433610Y-52406809D01*
X61433606Y-52406818D01*
X61399500Y-52534105D01*
X51953280Y-52534105D01*
X51900499Y-52442685D01*
X51807314Y-52349500D01*
X51693190Y-52283610D01*
X51693181Y-52283606D01*
X51565894Y-52249500D01*
X51565892Y-52249500D01*
X51434108Y-52249500D01*
X51434106Y-52249500D01*
X51306818Y-52283606D01*
X51306809Y-52283610D01*
X51192685Y-52349500D01*
X51099500Y-52442685D01*
X51033610Y-52556809D01*
X51033606Y-52556818D01*
X50999500Y-52684105D01*
X50525500Y-52684105D01*
X50525500Y-52412966D01*
X50547174Y-52360640D01*
X50563739Y-52344075D01*
X50600500Y-52307314D01*
X50666392Y-52193186D01*
X50700499Y-52065894D01*
X50700500Y-52065894D01*
X50700500Y-51934106D01*
X50700499Y-51934105D01*
X50695387Y-51915024D01*
X50666393Y-51806818D01*
X50666392Y-51806814D01*
X50600500Y-51692686D01*
X50507314Y-51599500D01*
X50393190Y-51533610D01*
X50393181Y-51533606D01*
X50265894Y-51499500D01*
X50265892Y-51499500D01*
X50134108Y-51499500D01*
X50134106Y-51499500D01*
X50006818Y-51533606D01*
X50006809Y-51533610D01*
X49892685Y-51599500D01*
X49799500Y-51692685D01*
X49733610Y-51806809D01*
X49733606Y-51806818D01*
X49699500Y-51934105D01*
X30500500Y-51934105D01*
X30500500Y-49349491D01*
X42250000Y-49349491D01*
X42250000Y-49530508D01*
X42278316Y-49709289D01*
X42278319Y-49709302D01*
X42334251Y-49881443D01*
X42416431Y-50042728D01*
X42457668Y-50099487D01*
X42931980Y-49625174D01*
X42934075Y-49632993D01*
X42999901Y-49747007D01*
X43092993Y-49840099D01*
X43207007Y-49905925D01*
X43214822Y-49908019D01*
X42740511Y-50382331D01*
X42797266Y-50423566D01*
X42958556Y-50505748D01*
X42958555Y-50505748D01*
X43130697Y-50561680D01*
X43130710Y-50561683D01*
X43309491Y-50590000D01*
X43490509Y-50590000D01*
X43669289Y-50561683D01*
X43669302Y-50561680D01*
X43841443Y-50505748D01*
X44002729Y-50423568D01*
X44059487Y-50382331D01*
X43843691Y-50166535D01*
X73949500Y-50166535D01*
X73949500Y-50373464D01*
X73989868Y-50576413D01*
X73989870Y-50576420D01*
X74069059Y-50767598D01*
X74184023Y-50939655D01*
X74330345Y-51085977D01*
X74502402Y-51200941D01*
X74693580Y-51280130D01*
X74896535Y-51320500D01*
X74896536Y-51320500D01*
X75103464Y-51320500D01*
X75103465Y-51320500D01*
X75306420Y-51280130D01*
X75497598Y-51200941D01*
X75669655Y-51085977D01*
X75815977Y-50939655D01*
X75930941Y-50767598D01*
X76010130Y-50576420D01*
X76050500Y-50373465D01*
X76050500Y-50166535D01*
X76010130Y-49963580D01*
X75930941Y-49772402D01*
X75815977Y-49600345D01*
X75669655Y-49454023D01*
X75648666Y-49439999D01*
X75497598Y-49339059D01*
X75306420Y-49259870D01*
X75306413Y-49259868D01*
X75153516Y-49229455D01*
X75103465Y-49219500D01*
X74896535Y-49219500D01*
X74856385Y-49227486D01*
X74693586Y-49259868D01*
X74693579Y-49259870D01*
X74502401Y-49339059D01*
X74330345Y-49454022D01*
X74330344Y-49454024D01*
X74184024Y-49600344D01*
X74184022Y-49600345D01*
X74069059Y-49772401D01*
X73989870Y-49963579D01*
X73989868Y-49963586D01*
X73949500Y-50166535D01*
X43843691Y-50166535D01*
X43585176Y-49908019D01*
X43592993Y-49905925D01*
X43707007Y-49840099D01*
X43800099Y-49747007D01*
X43865925Y-49632993D01*
X43868019Y-49625176D01*
X44342331Y-50099487D01*
X44383568Y-50042729D01*
X44465748Y-49881443D01*
X44521680Y-49709302D01*
X44521683Y-49709289D01*
X44550000Y-49530508D01*
X44550000Y-49349491D01*
X44521683Y-49170710D01*
X44521680Y-49170697D01*
X44465748Y-48998556D01*
X44383566Y-48837267D01*
X44383566Y-48837266D01*
X44342331Y-48780511D01*
X43868019Y-49254822D01*
X43865925Y-49247007D01*
X43800099Y-49132993D01*
X43707007Y-49039901D01*
X43592993Y-48974075D01*
X43585174Y-48971980D01*
X44059487Y-48497668D01*
X44002728Y-48456431D01*
X43841443Y-48374251D01*
X43841444Y-48374251D01*
X43669302Y-48318319D01*
X43669289Y-48318316D01*
X43568463Y-48302347D01*
X43490509Y-48290000D01*
X43309491Y-48290000D01*
X43130710Y-48318316D01*
X43130697Y-48318319D01*
X42958558Y-48374250D01*
X42797268Y-48456431D01*
X42740511Y-48497667D01*
X42740511Y-48497668D01*
X43214823Y-48971980D01*
X43207007Y-48974075D01*
X43092993Y-49039901D01*
X42999901Y-49132993D01*
X42934075Y-49247007D01*
X42931980Y-49254823D01*
X42457668Y-48780511D01*
X42457667Y-48780511D01*
X42416431Y-48837268D01*
X42334250Y-48998558D01*
X42278319Y-49170697D01*
X42278316Y-49170710D01*
X42250000Y-49349491D01*
X30500500Y-49349491D01*
X30500500Y-48234105D01*
X71699500Y-48234105D01*
X71699500Y-48365894D01*
X71733606Y-48493181D01*
X71733610Y-48493190D01*
X71757397Y-48534390D01*
X71799500Y-48607314D01*
X71892686Y-48700500D01*
X72006814Y-48766392D01*
X72134105Y-48800499D01*
X72134106Y-48800500D01*
X72134108Y-48800500D01*
X72265894Y-48800500D01*
X72265894Y-48800499D01*
X72393186Y-48766392D01*
X72507314Y-48700500D01*
X72560640Y-48647174D01*
X72612966Y-48625500D01*
X73387034Y-48625500D01*
X73439360Y-48647174D01*
X73492686Y-48700500D01*
X73606814Y-48766392D01*
X73734105Y-48800499D01*
X73734106Y-48800500D01*
X73734108Y-48800500D01*
X73865894Y-48800500D01*
X73865894Y-48800499D01*
X73993186Y-48766392D01*
X74107314Y-48700500D01*
X74200500Y-48607314D01*
X74222696Y-48568868D01*
X74267629Y-48534390D01*
X74323781Y-48541782D01*
X74327894Y-48544339D01*
X74330344Y-48545976D01*
X74330345Y-48545977D01*
X74502402Y-48660941D01*
X74693580Y-48740130D01*
X74896535Y-48780500D01*
X74896536Y-48780500D01*
X75103464Y-48780500D01*
X75103465Y-48780500D01*
X75306420Y-48740130D01*
X75497598Y-48660941D01*
X75669655Y-48545977D01*
X75815977Y-48399655D01*
X75930941Y-48227598D01*
X76010130Y-48036420D01*
X76050500Y-47833465D01*
X76050500Y-47626535D01*
X76010130Y-47423580D01*
X75930941Y-47232402D01*
X75815977Y-47060345D01*
X75669655Y-46914023D01*
X75497598Y-46799059D01*
X75306420Y-46719870D01*
X75306413Y-46719868D01*
X75153516Y-46689455D01*
X75103465Y-46679500D01*
X74896535Y-46679500D01*
X74856385Y-46687486D01*
X74693586Y-46719868D01*
X74693579Y-46719870D01*
X74502401Y-46799059D01*
X74330345Y-46914022D01*
X74330344Y-46914024D01*
X74184024Y-47060344D01*
X74184022Y-47060345D01*
X74069059Y-47232401D01*
X73989870Y-47423579D01*
X73989868Y-47423586D01*
X73949500Y-47626535D01*
X73949500Y-47726126D01*
X73927826Y-47778452D01*
X73875500Y-47800126D01*
X73865939Y-47799500D01*
X73865892Y-47799500D01*
X73734108Y-47799500D01*
X73734106Y-47799500D01*
X73606818Y-47833606D01*
X73606809Y-47833610D01*
X73492685Y-47899500D01*
X73439360Y-47952826D01*
X73387034Y-47974500D01*
X72612966Y-47974500D01*
X72560640Y-47952826D01*
X72507314Y-47899500D01*
X72393190Y-47833610D01*
X72393181Y-47833606D01*
X72265894Y-47799500D01*
X72265892Y-47799500D01*
X72134108Y-47799500D01*
X72134106Y-47799500D01*
X72006818Y-47833606D01*
X72006809Y-47833610D01*
X71892685Y-47899500D01*
X71799500Y-47992685D01*
X71733610Y-48106809D01*
X71733606Y-48106818D01*
X71699500Y-48234105D01*
X30500500Y-48234105D01*
X30500500Y-46030252D01*
X42349500Y-46030252D01*
X42349500Y-47769748D01*
X42355418Y-47799500D01*
X42361133Y-47828232D01*
X42364727Y-47833610D01*
X42405448Y-47894552D01*
X42449560Y-47924027D01*
X42471767Y-47938866D01*
X42471768Y-47938866D01*
X42471769Y-47938867D01*
X42530252Y-47950500D01*
X42530254Y-47950500D01*
X44269746Y-47950500D01*
X44269748Y-47950500D01*
X44328231Y-47938867D01*
X44394552Y-47894552D01*
X44438867Y-47828231D01*
X44450500Y-47769748D01*
X44450500Y-46030252D01*
X44438867Y-45971769D01*
X44394552Y-45905448D01*
X44372343Y-45890608D01*
X44328232Y-45861133D01*
X44328233Y-45861133D01*
X44298989Y-45855316D01*
X44269748Y-45849500D01*
X42530252Y-45849500D01*
X42501010Y-45855316D01*
X42471767Y-45861133D01*
X42405449Y-45905447D01*
X42405447Y-45905449D01*
X42361133Y-45971767D01*
X42361133Y-45971769D01*
X42349500Y-46030252D01*
X30500500Y-46030252D01*
X30500500Y-43381946D01*
X34500000Y-43381946D01*
X34500000Y-43618053D01*
X34536934Y-43851248D01*
X34536937Y-43851261D01*
X34609892Y-44075792D01*
X34717084Y-44286170D01*
X34807095Y-44410059D01*
X35457241Y-43759913D01*
X35519881Y-43868408D01*
X35631592Y-43980119D01*
X35740084Y-44042757D01*
X35089939Y-44692903D01*
X35213829Y-44782915D01*
X35424207Y-44890107D01*
X35648738Y-44963062D01*
X35648751Y-44963065D01*
X35881946Y-45000000D01*
X36118054Y-45000000D01*
X36351248Y-44963065D01*
X36351261Y-44963062D01*
X36575792Y-44890107D01*
X36786172Y-44782913D01*
X36910059Y-44692903D01*
X36259915Y-44042757D01*
X36368408Y-43980119D01*
X36480119Y-43868408D01*
X36542758Y-43759914D01*
X37192903Y-44410059D01*
X37258151Y-44320253D01*
X73949500Y-44320253D01*
X73949500Y-46059746D01*
X73961133Y-46118232D01*
X73990608Y-46162343D01*
X74005448Y-46184552D01*
X74049560Y-46214027D01*
X74071767Y-46228866D01*
X74071768Y-46228866D01*
X74071769Y-46228867D01*
X74130252Y-46240500D01*
X74130254Y-46240500D01*
X75869746Y-46240500D01*
X75869748Y-46240500D01*
X75928231Y-46228867D01*
X75994552Y-46184552D01*
X76038867Y-46118231D01*
X76050500Y-46059748D01*
X76050500Y-44320252D01*
X76038867Y-44261769D01*
X75994552Y-44195448D01*
X75972343Y-44180608D01*
X75928232Y-44151133D01*
X75928233Y-44151133D01*
X75898989Y-44145316D01*
X75869748Y-44139500D01*
X74130252Y-44139500D01*
X74101010Y-44145316D01*
X74071767Y-44151133D01*
X74005449Y-44195447D01*
X74005447Y-44195449D01*
X73961133Y-44261767D01*
X73949500Y-44320253D01*
X37258151Y-44320253D01*
X37282915Y-44286169D01*
X37284521Y-44283019D01*
X37390107Y-44075792D01*
X37463062Y-43851261D01*
X37463065Y-43851248D01*
X37500000Y-43618053D01*
X37500000Y-43381946D01*
X37463065Y-43148751D01*
X37463062Y-43148738D01*
X37390107Y-42924207D01*
X37282915Y-42713829D01*
X37192903Y-42589939D01*
X36542757Y-43240083D01*
X36480119Y-43131592D01*
X36368408Y-43019881D01*
X36259913Y-42957241D01*
X36910059Y-42307095D01*
X36786170Y-42217084D01*
X36575792Y-42109892D01*
X36351261Y-42036937D01*
X36351248Y-42036934D01*
X36118054Y-42000000D01*
X35881946Y-42000000D01*
X35648751Y-42036934D01*
X35648738Y-42036937D01*
X35424207Y-42109892D01*
X35213828Y-42217084D01*
X35089939Y-42307096D01*
X35740085Y-42957242D01*
X35631592Y-43019881D01*
X35519881Y-43131592D01*
X35457242Y-43240085D01*
X34807096Y-42589939D01*
X34717084Y-42713828D01*
X34609892Y-42924207D01*
X34536937Y-43148738D01*
X34536934Y-43148751D01*
X34500000Y-43381946D01*
X30500500Y-43381946D01*
X30500500Y-38995735D01*
X34599500Y-38995735D01*
X34599500Y-38995736D01*
X34599500Y-38995741D01*
X34599500Y-41004255D01*
X34599501Y-41004268D01*
X34602353Y-41034695D01*
X34602355Y-41034704D01*
X34647205Y-41162880D01*
X34647207Y-41162883D01*
X34727846Y-41272146D01*
X34727853Y-41272153D01*
X34837116Y-41352792D01*
X34837119Y-41352794D01*
X34965292Y-41397643D01*
X34965299Y-41397645D01*
X34965302Y-41397646D01*
X34995735Y-41400500D01*
X37004264Y-41400499D01*
X37034698Y-41397646D01*
X37034707Y-41397643D01*
X37162880Y-41352794D01*
X37162883Y-41352792D01*
X37272146Y-41272153D01*
X37272146Y-41272152D01*
X37272150Y-41272150D01*
X37352793Y-41162882D01*
X37397646Y-41034698D01*
X37400500Y-41004265D01*
X37400499Y-38995736D01*
X37397646Y-38965302D01*
X37397643Y-38965292D01*
X37352794Y-38837119D01*
X37352792Y-38837116D01*
X37272153Y-38727853D01*
X37272146Y-38727846D01*
X37162883Y-38647207D01*
X37162880Y-38647205D01*
X37034707Y-38602356D01*
X37034700Y-38602354D01*
X37027935Y-38601719D01*
X37004265Y-38599500D01*
X37004258Y-38599500D01*
X34995744Y-38599500D01*
X34995731Y-38599501D01*
X34965304Y-38602353D01*
X34965295Y-38602355D01*
X34837119Y-38647205D01*
X34837116Y-38647207D01*
X34727853Y-38727846D01*
X34727846Y-38727853D01*
X34647207Y-38837116D01*
X34647205Y-38837119D01*
X34602356Y-38965292D01*
X34602354Y-38965299D01*
X34602354Y-38965302D01*
X34599500Y-38995735D01*
X30500500Y-38995735D01*
X30500500Y-32693710D01*
X42649500Y-32693710D01*
X42649500Y-32906287D01*
X42682753Y-33116239D01*
X42682756Y-33116252D01*
X42748440Y-33318405D01*
X42844948Y-33507815D01*
X42921475Y-33613145D01*
X42969896Y-33679791D01*
X43120208Y-33830103D01*
X43215656Y-33899450D01*
X43292183Y-33955050D01*
X43383474Y-34001564D01*
X43481588Y-34051556D01*
X43481590Y-34051556D01*
X43481593Y-34051558D01*
X43683746Y-34117242D01*
X43683752Y-34117243D01*
X43683757Y-34117245D01*
X43788735Y-34133872D01*
X43893711Y-34150499D01*
X43893713Y-34150499D01*
X44106289Y-34150499D01*
X44190269Y-34137197D01*
X44316243Y-34117245D01*
X44316250Y-34117242D01*
X44316253Y-34117242D01*
X44518406Y-34051558D01*
X44518406Y-34051557D01*
X44518412Y-34051556D01*
X44707816Y-33955050D01*
X44879792Y-33830103D01*
X45030104Y-33679791D01*
X45155051Y-33507815D01*
X45251557Y-33318411D01*
X45317246Y-33116242D01*
X45350500Y-32906286D01*
X45350500Y-32693712D01*
X45350500Y-32693710D01*
X66649500Y-32693710D01*
X66649500Y-32906287D01*
X66682753Y-33116239D01*
X66682756Y-33116252D01*
X66748440Y-33318405D01*
X66844948Y-33507815D01*
X66921475Y-33613145D01*
X66969896Y-33679791D01*
X67120208Y-33830103D01*
X67215656Y-33899450D01*
X67292183Y-33955050D01*
X67383474Y-34001564D01*
X67481588Y-34051556D01*
X67481590Y-34051556D01*
X67481593Y-34051558D01*
X67683746Y-34117242D01*
X67683752Y-34117243D01*
X67683757Y-34117245D01*
X67788735Y-34133872D01*
X67893711Y-34150499D01*
X67893713Y-34150499D01*
X68106289Y-34150499D01*
X68190269Y-34137197D01*
X68316243Y-34117245D01*
X68316250Y-34117242D01*
X68316253Y-34117242D01*
X68518406Y-34051558D01*
X68518406Y-34051557D01*
X68518412Y-34051556D01*
X68707816Y-33955050D01*
X68879792Y-33830103D01*
X69030104Y-33679791D01*
X69155051Y-33507815D01*
X69251557Y-33318411D01*
X69317246Y-33116242D01*
X69350500Y-32906286D01*
X69350500Y-32693712D01*
X69317246Y-32483756D01*
X69317244Y-32483751D01*
X69317243Y-32483745D01*
X69251559Y-32281592D01*
X69251557Y-32281589D01*
X69251557Y-32281587D01*
X69201565Y-32183473D01*
X69155051Y-32092182D01*
X69099451Y-32015655D01*
X69030104Y-31920207D01*
X68879792Y-31769895D01*
X68813146Y-31721474D01*
X68707816Y-31644947D01*
X68518406Y-31548439D01*
X68316253Y-31482755D01*
X68316240Y-31482752D01*
X68106289Y-31449499D01*
X68106287Y-31449499D01*
X67893713Y-31449499D01*
X67893711Y-31449499D01*
X67683759Y-31482752D01*
X67683746Y-31482755D01*
X67481593Y-31548439D01*
X67292183Y-31644947D01*
X67120212Y-31769892D01*
X67120208Y-31769895D01*
X66969896Y-31920207D01*
X66969893Y-31920210D01*
X66969893Y-31920211D01*
X66844948Y-32092182D01*
X66748440Y-32281592D01*
X66682756Y-32483745D01*
X66682753Y-32483758D01*
X66649500Y-32693710D01*
X45350500Y-32693710D01*
X45317246Y-32483756D01*
X45317244Y-32483751D01*
X45317243Y-32483745D01*
X45251559Y-32281592D01*
X45251557Y-32281589D01*
X45251557Y-32281587D01*
X45201565Y-32183473D01*
X45155051Y-32092182D01*
X45099451Y-32015655D01*
X45030104Y-31920207D01*
X44879792Y-31769895D01*
X44813146Y-31721474D01*
X44707816Y-31644947D01*
X44518406Y-31548439D01*
X44316253Y-31482755D01*
X44316240Y-31482752D01*
X44106289Y-31449499D01*
X44106287Y-31449499D01*
X43893713Y-31449499D01*
X43893711Y-31449499D01*
X43683759Y-31482752D01*
X43683746Y-31482755D01*
X43481593Y-31548439D01*
X43292183Y-31644947D01*
X43120212Y-31769892D01*
X43120208Y-31769895D01*
X42969896Y-31920207D01*
X42969893Y-31920210D01*
X42969893Y-31920211D01*
X42844948Y-32092182D01*
X42748440Y-32281592D01*
X42682756Y-32483745D01*
X42682753Y-32483758D01*
X42649500Y-32693710D01*
X30500500Y-32693710D01*
X30500500Y-30574500D01*
X30522174Y-30522174D01*
X30574500Y-30500500D01*
X77425500Y-30500500D01*
X77477826Y-30522174D01*
G37*
%TD.AperFunction*%
%TD*%
M02*
