%TF.GenerationSoftware,KiCad,Pcbnew,10.0.5*%
%TF.CreationDate,2026-08-26T23:26:56+01:00*%
%TF.ProjectId,bazauto-block-detection,62617a61-7574-46f2-9d62-6c6f636b2d64,rev?*%
%TF.SameCoordinates,Original*%
%TF.FileFunction,Legend,Top*%
%TF.FilePolarity,Positive*%
%FSLAX46Y46*%
G04 Gerber Fmt 4.6, Leading zero omitted, Abs format (unit mm)*
G04 Created by KiCad (PCBNEW 10.0.5) date 2026-08-26 23:26:56*
%MOMM*%
%LPD*%
G01*
G04 APERTURE LIST*
%ADD10C,0.120000*%
%ADD11C,0.135000*%
%ADD12C,0.150000*%
G04 APERTURE END LIST*
D10*
X32247994Y-46275900D02*
X32247994Y-46847328D01*
X32247994Y-46847328D02*
X32209899Y-46961614D01*
X32209899Y-46961614D02*
X32133708Y-47037805D01*
X32133708Y-47037805D02*
X32019423Y-47075900D01*
X32019423Y-47075900D02*
X31943232Y-47075900D01*
X32628947Y-47075900D02*
X32628947Y-46275900D01*
X32628947Y-46275900D02*
X32933709Y-46275900D01*
X32933709Y-46275900D02*
X33009899Y-46313995D01*
X33009899Y-46313995D02*
X33047994Y-46352090D01*
X33047994Y-46352090D02*
X33086090Y-46428281D01*
X33086090Y-46428281D02*
X33086090Y-46542566D01*
X33086090Y-46542566D02*
X33047994Y-46618757D01*
X33047994Y-46618757D02*
X33009899Y-46656852D01*
X33009899Y-46656852D02*
X32933709Y-46694947D01*
X32933709Y-46694947D02*
X32628947Y-46694947D01*
X33847994Y-47075900D02*
X33390851Y-47075900D01*
X33619423Y-47075900D02*
X33619423Y-46275900D01*
X33619423Y-46275900D02*
X33543232Y-46390185D01*
X33543232Y-46390185D02*
X33467042Y-46466376D01*
X33467042Y-46466376D02*
X33390851Y-46504471D01*
X32476566Y-48287664D02*
X32438470Y-48325760D01*
X32438470Y-48325760D02*
X32324185Y-48363855D01*
X32324185Y-48363855D02*
X32247994Y-48363855D01*
X32247994Y-48363855D02*
X32133708Y-48325760D01*
X32133708Y-48325760D02*
X32057518Y-48249569D01*
X32057518Y-48249569D02*
X32019423Y-48173379D01*
X32019423Y-48173379D02*
X31981327Y-48020998D01*
X31981327Y-48020998D02*
X31981327Y-47906712D01*
X31981327Y-47906712D02*
X32019423Y-47754331D01*
X32019423Y-47754331D02*
X32057518Y-47678140D01*
X32057518Y-47678140D02*
X32133708Y-47601950D01*
X32133708Y-47601950D02*
X32247994Y-47563855D01*
X32247994Y-47563855D02*
X32324185Y-47563855D01*
X32324185Y-47563855D02*
X32438470Y-47601950D01*
X32438470Y-47601950D02*
X32476566Y-47640045D01*
X33200375Y-48363855D02*
X32819423Y-48363855D01*
X32819423Y-48363855D02*
X32819423Y-47563855D01*
X33619423Y-47563855D02*
X33771804Y-47563855D01*
X33771804Y-47563855D02*
X33847994Y-47601950D01*
X33847994Y-47601950D02*
X33924185Y-47678140D01*
X33924185Y-47678140D02*
X33962280Y-47830521D01*
X33962280Y-47830521D02*
X33962280Y-48097188D01*
X33962280Y-48097188D02*
X33924185Y-48249569D01*
X33924185Y-48249569D02*
X33847994Y-48325760D01*
X33847994Y-48325760D02*
X33771804Y-48363855D01*
X33771804Y-48363855D02*
X33619423Y-48363855D01*
X33619423Y-48363855D02*
X33543232Y-48325760D01*
X33543232Y-48325760D02*
X33467042Y-48249569D01*
X33467042Y-48249569D02*
X33428946Y-48097188D01*
X33428946Y-48097188D02*
X33428946Y-47830521D01*
X33428946Y-47830521D02*
X33467042Y-47678140D01*
X33467042Y-47678140D02*
X33543232Y-47601950D01*
X33543232Y-47601950D02*
X33619423Y-47563855D01*
X34267041Y-48325760D02*
X34381327Y-48363855D01*
X34381327Y-48363855D02*
X34571803Y-48363855D01*
X34571803Y-48363855D02*
X34647994Y-48325760D01*
X34647994Y-48325760D02*
X34686089Y-48287664D01*
X34686089Y-48287664D02*
X34724184Y-48211474D01*
X34724184Y-48211474D02*
X34724184Y-48135283D01*
X34724184Y-48135283D02*
X34686089Y-48059093D01*
X34686089Y-48059093D02*
X34647994Y-48020998D01*
X34647994Y-48020998D02*
X34571803Y-47982902D01*
X34571803Y-47982902D02*
X34419422Y-47944807D01*
X34419422Y-47944807D02*
X34343232Y-47906712D01*
X34343232Y-47906712D02*
X34305137Y-47868617D01*
X34305137Y-47868617D02*
X34267041Y-47792426D01*
X34267041Y-47792426D02*
X34267041Y-47716236D01*
X34267041Y-47716236D02*
X34305137Y-47640045D01*
X34305137Y-47640045D02*
X34343232Y-47601950D01*
X34343232Y-47601950D02*
X34419422Y-47563855D01*
X34419422Y-47563855D02*
X34609899Y-47563855D01*
X34609899Y-47563855D02*
X34724184Y-47601950D01*
X35067042Y-47944807D02*
X35333708Y-47944807D01*
X35447994Y-48363855D02*
X35067042Y-48363855D01*
X35067042Y-48363855D02*
X35067042Y-47563855D01*
X35067042Y-47563855D02*
X35447994Y-47563855D01*
X35790852Y-48363855D02*
X35790852Y-47563855D01*
X35790852Y-47563855D02*
X35981328Y-47563855D01*
X35981328Y-47563855D02*
X36095614Y-47601950D01*
X36095614Y-47601950D02*
X36171804Y-47678140D01*
X36171804Y-47678140D02*
X36209899Y-47754331D01*
X36209899Y-47754331D02*
X36247995Y-47906712D01*
X36247995Y-47906712D02*
X36247995Y-48020998D01*
X36247995Y-48020998D02*
X36209899Y-48173379D01*
X36209899Y-48173379D02*
X36171804Y-48249569D01*
X36171804Y-48249569D02*
X36095614Y-48325760D01*
X36095614Y-48325760D02*
X35981328Y-48363855D01*
X35981328Y-48363855D02*
X35790852Y-48363855D01*
X36590852Y-47944807D02*
X37200376Y-47944807D01*
X37200376Y-48173379D02*
X36590852Y-48173379D01*
X37581328Y-48363855D02*
X37581328Y-47563855D01*
X37581328Y-47563855D02*
X37847994Y-48135283D01*
X37847994Y-48135283D02*
X38114661Y-47563855D01*
X38114661Y-47563855D02*
X38114661Y-48363855D01*
X38457518Y-48135283D02*
X38838471Y-48135283D01*
X38381328Y-48363855D02*
X38647995Y-47563855D01*
X38647995Y-47563855D02*
X38914661Y-48363855D01*
X39181328Y-48363855D02*
X39181328Y-47563855D01*
X39562280Y-48363855D02*
X39562280Y-47563855D01*
X39562280Y-47563855D02*
X40019423Y-48363855D01*
X40019423Y-48363855D02*
X40019423Y-47563855D01*
X32171804Y-48851810D02*
X32324185Y-48851810D01*
X32324185Y-48851810D02*
X32400375Y-48889905D01*
X32400375Y-48889905D02*
X32476566Y-48966095D01*
X32476566Y-48966095D02*
X32514661Y-49118476D01*
X32514661Y-49118476D02*
X32514661Y-49385143D01*
X32514661Y-49385143D02*
X32476566Y-49537524D01*
X32476566Y-49537524D02*
X32400375Y-49613715D01*
X32400375Y-49613715D02*
X32324185Y-49651810D01*
X32324185Y-49651810D02*
X32171804Y-49651810D01*
X32171804Y-49651810D02*
X32095613Y-49613715D01*
X32095613Y-49613715D02*
X32019423Y-49537524D01*
X32019423Y-49537524D02*
X31981327Y-49385143D01*
X31981327Y-49385143D02*
X31981327Y-49118476D01*
X31981327Y-49118476D02*
X32019423Y-48966095D01*
X32019423Y-48966095D02*
X32095613Y-48889905D01*
X32095613Y-48889905D02*
X32171804Y-48851810D01*
X32857518Y-49651810D02*
X32857518Y-48851810D01*
X32857518Y-48851810D02*
X33162280Y-48851810D01*
X33162280Y-48851810D02*
X33238470Y-48889905D01*
X33238470Y-48889905D02*
X33276565Y-48928000D01*
X33276565Y-48928000D02*
X33314661Y-49004191D01*
X33314661Y-49004191D02*
X33314661Y-49118476D01*
X33314661Y-49118476D02*
X33276565Y-49194667D01*
X33276565Y-49194667D02*
X33238470Y-49232762D01*
X33238470Y-49232762D02*
X33162280Y-49270857D01*
X33162280Y-49270857D02*
X32857518Y-49270857D01*
X33657518Y-49232762D02*
X33924184Y-49232762D01*
X34038470Y-49651810D02*
X33657518Y-49651810D01*
X33657518Y-49651810D02*
X33657518Y-48851810D01*
X33657518Y-48851810D02*
X34038470Y-48851810D01*
X34381328Y-49651810D02*
X34381328Y-48851810D01*
X34381328Y-48851810D02*
X34838471Y-49651810D01*
X34838471Y-49651810D02*
X34838471Y-48851810D01*
X35219423Y-49232762D02*
X35828947Y-49232762D01*
X35828947Y-49461334D02*
X35219423Y-49461334D01*
X36209899Y-49651810D02*
X36209899Y-48851810D01*
X36209899Y-48851810D02*
X36514661Y-48851810D01*
X36514661Y-48851810D02*
X36590851Y-48889905D01*
X36590851Y-48889905D02*
X36628946Y-48928000D01*
X36628946Y-48928000D02*
X36667042Y-49004191D01*
X36667042Y-49004191D02*
X36667042Y-49118476D01*
X36667042Y-49118476D02*
X36628946Y-49194667D01*
X36628946Y-49194667D02*
X36590851Y-49232762D01*
X36590851Y-49232762D02*
X36514661Y-49270857D01*
X36514661Y-49270857D02*
X36209899Y-49270857D01*
X37467042Y-49651810D02*
X37200375Y-49270857D01*
X37009899Y-49651810D02*
X37009899Y-48851810D01*
X37009899Y-48851810D02*
X37314661Y-48851810D01*
X37314661Y-48851810D02*
X37390851Y-48889905D01*
X37390851Y-48889905D02*
X37428946Y-48928000D01*
X37428946Y-48928000D02*
X37467042Y-49004191D01*
X37467042Y-49004191D02*
X37467042Y-49118476D01*
X37467042Y-49118476D02*
X37428946Y-49194667D01*
X37428946Y-49194667D02*
X37390851Y-49232762D01*
X37390851Y-49232762D02*
X37314661Y-49270857D01*
X37314661Y-49270857D02*
X37009899Y-49270857D01*
X37962280Y-48851810D02*
X38114661Y-48851810D01*
X38114661Y-48851810D02*
X38190851Y-48889905D01*
X38190851Y-48889905D02*
X38267042Y-48966095D01*
X38267042Y-48966095D02*
X38305137Y-49118476D01*
X38305137Y-49118476D02*
X38305137Y-49385143D01*
X38305137Y-49385143D02*
X38267042Y-49537524D01*
X38267042Y-49537524D02*
X38190851Y-49613715D01*
X38190851Y-49613715D02*
X38114661Y-49651810D01*
X38114661Y-49651810D02*
X37962280Y-49651810D01*
X37962280Y-49651810D02*
X37886089Y-49613715D01*
X37886089Y-49613715D02*
X37809899Y-49537524D01*
X37809899Y-49537524D02*
X37771803Y-49385143D01*
X37771803Y-49385143D02*
X37771803Y-49118476D01*
X37771803Y-49118476D02*
X37809899Y-48966095D01*
X37809899Y-48966095D02*
X37886089Y-48889905D01*
X37886089Y-48889905D02*
X37962280Y-48851810D01*
X39067041Y-48889905D02*
X38990851Y-48851810D01*
X38990851Y-48851810D02*
X38876565Y-48851810D01*
X38876565Y-48851810D02*
X38762279Y-48889905D01*
X38762279Y-48889905D02*
X38686089Y-48966095D01*
X38686089Y-48966095D02*
X38647994Y-49042286D01*
X38647994Y-49042286D02*
X38609898Y-49194667D01*
X38609898Y-49194667D02*
X38609898Y-49308953D01*
X38609898Y-49308953D02*
X38647994Y-49461334D01*
X38647994Y-49461334D02*
X38686089Y-49537524D01*
X38686089Y-49537524D02*
X38762279Y-49613715D01*
X38762279Y-49613715D02*
X38876565Y-49651810D01*
X38876565Y-49651810D02*
X38952756Y-49651810D01*
X38952756Y-49651810D02*
X39067041Y-49613715D01*
X39067041Y-49613715D02*
X39105137Y-49575619D01*
X39105137Y-49575619D02*
X39105137Y-49308953D01*
X39105137Y-49308953D02*
X38952756Y-49308953D01*
X32247994Y-64163854D02*
X32247994Y-64735282D01*
X32247994Y-64735282D02*
X32209899Y-64849568D01*
X32209899Y-64849568D02*
X32133708Y-64925759D01*
X32133708Y-64925759D02*
X32019423Y-64963854D01*
X32019423Y-64963854D02*
X31943232Y-64963854D01*
X32552756Y-64163854D02*
X33047994Y-64163854D01*
X33047994Y-64163854D02*
X32781328Y-64468616D01*
X32781328Y-64468616D02*
X32895613Y-64468616D01*
X32895613Y-64468616D02*
X32971804Y-64506711D01*
X32971804Y-64506711D02*
X33009899Y-64544806D01*
X33009899Y-64544806D02*
X33047994Y-64620997D01*
X33047994Y-64620997D02*
X33047994Y-64811473D01*
X33047994Y-64811473D02*
X33009899Y-64887663D01*
X33009899Y-64887663D02*
X32971804Y-64925759D01*
X32971804Y-64925759D02*
X32895613Y-64963854D01*
X32895613Y-64963854D02*
X32667042Y-64963854D01*
X32667042Y-64963854D02*
X32590851Y-64925759D01*
X32590851Y-64925759D02*
X32552756Y-64887663D01*
X34000376Y-64963854D02*
X34000376Y-64163854D01*
X34000376Y-64163854D02*
X34305138Y-64163854D01*
X34305138Y-64163854D02*
X34381328Y-64201949D01*
X34381328Y-64201949D02*
X34419423Y-64240044D01*
X34419423Y-64240044D02*
X34457519Y-64316235D01*
X34457519Y-64316235D02*
X34457519Y-64430520D01*
X34457519Y-64430520D02*
X34419423Y-64506711D01*
X34419423Y-64506711D02*
X34381328Y-64544806D01*
X34381328Y-64544806D02*
X34305138Y-64582901D01*
X34305138Y-64582901D02*
X34000376Y-64582901D01*
X34800376Y-64963854D02*
X34800376Y-64163854D01*
X35181328Y-64963854D02*
X35181328Y-64163854D01*
X35181328Y-64163854D02*
X35638471Y-64963854D01*
X35638471Y-64963854D02*
X35638471Y-64163854D01*
X36171804Y-64163854D02*
X36324185Y-64163854D01*
X36324185Y-64163854D02*
X36400375Y-64201949D01*
X36400375Y-64201949D02*
X36476566Y-64278139D01*
X36476566Y-64278139D02*
X36514661Y-64430520D01*
X36514661Y-64430520D02*
X36514661Y-64697187D01*
X36514661Y-64697187D02*
X36476566Y-64849568D01*
X36476566Y-64849568D02*
X36400375Y-64925759D01*
X36400375Y-64925759D02*
X36324185Y-64963854D01*
X36324185Y-64963854D02*
X36171804Y-64963854D01*
X36171804Y-64963854D02*
X36095613Y-64925759D01*
X36095613Y-64925759D02*
X36019423Y-64849568D01*
X36019423Y-64849568D02*
X35981327Y-64697187D01*
X35981327Y-64697187D02*
X35981327Y-64430520D01*
X35981327Y-64430520D02*
X36019423Y-64278139D01*
X36019423Y-64278139D02*
X36095613Y-64201949D01*
X36095613Y-64201949D02*
X36171804Y-64163854D01*
X36857518Y-64163854D02*
X36857518Y-64811473D01*
X36857518Y-64811473D02*
X36895613Y-64887663D01*
X36895613Y-64887663D02*
X36933708Y-64925759D01*
X36933708Y-64925759D02*
X37009899Y-64963854D01*
X37009899Y-64963854D02*
X37162280Y-64963854D01*
X37162280Y-64963854D02*
X37238470Y-64925759D01*
X37238470Y-64925759D02*
X37276565Y-64887663D01*
X37276565Y-64887663D02*
X37314661Y-64811473D01*
X37314661Y-64811473D02*
X37314661Y-64163854D01*
X37581327Y-64163854D02*
X38038470Y-64163854D01*
X37809898Y-64963854D02*
X37809898Y-64163854D01*
X31943232Y-65763855D02*
X32438470Y-65763855D01*
X32438470Y-65763855D02*
X32171804Y-66068617D01*
X32171804Y-66068617D02*
X32286089Y-66068617D01*
X32286089Y-66068617D02*
X32362280Y-66106712D01*
X32362280Y-66106712D02*
X32400375Y-66144807D01*
X32400375Y-66144807D02*
X32438470Y-66220998D01*
X32438470Y-66220998D02*
X32438470Y-66411474D01*
X32438470Y-66411474D02*
X32400375Y-66487664D01*
X32400375Y-66487664D02*
X32362280Y-66525760D01*
X32362280Y-66525760D02*
X32286089Y-66563855D01*
X32286089Y-66563855D02*
X32057518Y-66563855D01*
X32057518Y-66563855D02*
X31981327Y-66525760D01*
X31981327Y-66525760D02*
X31943232Y-66487664D01*
X32667042Y-65763855D02*
X32933709Y-66563855D01*
X32933709Y-66563855D02*
X33200375Y-65763855D01*
X33390851Y-65763855D02*
X33886089Y-65763855D01*
X33886089Y-65763855D02*
X33619423Y-66068617D01*
X33619423Y-66068617D02*
X33733708Y-66068617D01*
X33733708Y-66068617D02*
X33809899Y-66106712D01*
X33809899Y-66106712D02*
X33847994Y-66144807D01*
X33847994Y-66144807D02*
X33886089Y-66220998D01*
X33886089Y-66220998D02*
X33886089Y-66411474D01*
X33886089Y-66411474D02*
X33847994Y-66487664D01*
X33847994Y-66487664D02*
X33809899Y-66525760D01*
X33809899Y-66525760D02*
X33733708Y-66563855D01*
X33733708Y-66563855D02*
X33505137Y-66563855D01*
X33505137Y-66563855D02*
X33428946Y-66525760D01*
X33428946Y-66525760D02*
X33390851Y-66487664D01*
X34990852Y-65763855D02*
X35143233Y-65763855D01*
X35143233Y-65763855D02*
X35219423Y-65801950D01*
X35219423Y-65801950D02*
X35295614Y-65878140D01*
X35295614Y-65878140D02*
X35333709Y-66030521D01*
X35333709Y-66030521D02*
X35333709Y-66297188D01*
X35333709Y-66297188D02*
X35295614Y-66449569D01*
X35295614Y-66449569D02*
X35219423Y-66525760D01*
X35219423Y-66525760D02*
X35143233Y-66563855D01*
X35143233Y-66563855D02*
X34990852Y-66563855D01*
X34990852Y-66563855D02*
X34914661Y-66525760D01*
X34914661Y-66525760D02*
X34838471Y-66449569D01*
X34838471Y-66449569D02*
X34800375Y-66297188D01*
X34800375Y-66297188D02*
X34800375Y-66030521D01*
X34800375Y-66030521D02*
X34838471Y-65878140D01*
X34838471Y-65878140D02*
X34914661Y-65801950D01*
X34914661Y-65801950D02*
X34990852Y-65763855D01*
X36095613Y-66563855D02*
X35638470Y-66563855D01*
X35867042Y-66563855D02*
X35867042Y-65763855D01*
X35867042Y-65763855D02*
X35790851Y-65878140D01*
X35790851Y-65878140D02*
X35714661Y-65954331D01*
X35714661Y-65954331D02*
X35638470Y-65992426D01*
X37200376Y-65763855D02*
X37352757Y-65763855D01*
X37352757Y-65763855D02*
X37428947Y-65801950D01*
X37428947Y-65801950D02*
X37505138Y-65878140D01*
X37505138Y-65878140D02*
X37543233Y-66030521D01*
X37543233Y-66030521D02*
X37543233Y-66297188D01*
X37543233Y-66297188D02*
X37505138Y-66449569D01*
X37505138Y-66449569D02*
X37428947Y-66525760D01*
X37428947Y-66525760D02*
X37352757Y-66563855D01*
X37352757Y-66563855D02*
X37200376Y-66563855D01*
X37200376Y-66563855D02*
X37124185Y-66525760D01*
X37124185Y-66525760D02*
X37047995Y-66449569D01*
X37047995Y-66449569D02*
X37009899Y-66297188D01*
X37009899Y-66297188D02*
X37009899Y-66030521D01*
X37009899Y-66030521D02*
X37047995Y-65878140D01*
X37047995Y-65878140D02*
X37124185Y-65801950D01*
X37124185Y-65801950D02*
X37200376Y-65763855D01*
X37847994Y-65840045D02*
X37886090Y-65801950D01*
X37886090Y-65801950D02*
X37962280Y-65763855D01*
X37962280Y-65763855D02*
X38152756Y-65763855D01*
X38152756Y-65763855D02*
X38228947Y-65801950D01*
X38228947Y-65801950D02*
X38267042Y-65840045D01*
X38267042Y-65840045D02*
X38305137Y-65916236D01*
X38305137Y-65916236D02*
X38305137Y-65992426D01*
X38305137Y-65992426D02*
X38267042Y-66106712D01*
X38267042Y-66106712D02*
X37809899Y-66563855D01*
X37809899Y-66563855D02*
X38305137Y-66563855D01*
X39676566Y-65801950D02*
X39600376Y-65763855D01*
X39600376Y-65763855D02*
X39486090Y-65763855D01*
X39486090Y-65763855D02*
X39371804Y-65801950D01*
X39371804Y-65801950D02*
X39295614Y-65878140D01*
X39295614Y-65878140D02*
X39257519Y-65954331D01*
X39257519Y-65954331D02*
X39219423Y-66106712D01*
X39219423Y-66106712D02*
X39219423Y-66220998D01*
X39219423Y-66220998D02*
X39257519Y-66373379D01*
X39257519Y-66373379D02*
X39295614Y-66449569D01*
X39295614Y-66449569D02*
X39371804Y-66525760D01*
X39371804Y-66525760D02*
X39486090Y-66563855D01*
X39486090Y-66563855D02*
X39562281Y-66563855D01*
X39562281Y-66563855D02*
X39676566Y-66525760D01*
X39676566Y-66525760D02*
X39714662Y-66487664D01*
X39714662Y-66487664D02*
X39714662Y-66220998D01*
X39714662Y-66220998D02*
X39562281Y-66220998D01*
X40057519Y-66563855D02*
X40057519Y-65763855D01*
X40057519Y-65763855D02*
X40514662Y-66563855D01*
X40514662Y-66563855D02*
X40514662Y-65763855D01*
X40895614Y-66563855D02*
X40895614Y-65763855D01*
X40895614Y-65763855D02*
X41086090Y-65763855D01*
X41086090Y-65763855D02*
X41200376Y-65801950D01*
X41200376Y-65801950D02*
X41276566Y-65878140D01*
X41276566Y-65878140D02*
X41314661Y-65954331D01*
X41314661Y-65954331D02*
X41352757Y-66106712D01*
X41352757Y-66106712D02*
X41352757Y-66220998D01*
X41352757Y-66220998D02*
X41314661Y-66373379D01*
X41314661Y-66373379D02*
X41276566Y-66449569D01*
X41276566Y-66449569D02*
X41200376Y-66525760D01*
X41200376Y-66525760D02*
X41086090Y-66563855D01*
X41086090Y-66563855D02*
X40895614Y-66563855D01*
X32286089Y-31906852D02*
X32400375Y-31944947D01*
X32400375Y-31944947D02*
X32438470Y-31983043D01*
X32438470Y-31983043D02*
X32476566Y-32059233D01*
X32476566Y-32059233D02*
X32476566Y-32173519D01*
X32476566Y-32173519D02*
X32438470Y-32249709D01*
X32438470Y-32249709D02*
X32400375Y-32287805D01*
X32400375Y-32287805D02*
X32324185Y-32325900D01*
X32324185Y-32325900D02*
X32019423Y-32325900D01*
X32019423Y-32325900D02*
X32019423Y-31525900D01*
X32019423Y-31525900D02*
X32286089Y-31525900D01*
X32286089Y-31525900D02*
X32362280Y-31563995D01*
X32362280Y-31563995D02*
X32400375Y-31602090D01*
X32400375Y-31602090D02*
X32438470Y-31678281D01*
X32438470Y-31678281D02*
X32438470Y-31754471D01*
X32438470Y-31754471D02*
X32400375Y-31830662D01*
X32400375Y-31830662D02*
X32362280Y-31868757D01*
X32362280Y-31868757D02*
X32286089Y-31906852D01*
X32286089Y-31906852D02*
X32019423Y-31906852D01*
X32781327Y-32097328D02*
X33162280Y-32097328D01*
X32705137Y-32325900D02*
X32971804Y-31525900D01*
X32971804Y-31525900D02*
X33238470Y-32325900D01*
X33428946Y-31525900D02*
X33962280Y-31525900D01*
X33962280Y-31525900D02*
X33428946Y-32325900D01*
X33428946Y-32325900D02*
X33962280Y-32325900D01*
X34228946Y-32097328D02*
X34609899Y-32097328D01*
X34152756Y-32325900D02*
X34419423Y-31525900D01*
X34419423Y-31525900D02*
X34686089Y-32325900D01*
X34952756Y-31525900D02*
X34952756Y-32173519D01*
X34952756Y-32173519D02*
X34990851Y-32249709D01*
X34990851Y-32249709D02*
X35028946Y-32287805D01*
X35028946Y-32287805D02*
X35105137Y-32325900D01*
X35105137Y-32325900D02*
X35257518Y-32325900D01*
X35257518Y-32325900D02*
X35333708Y-32287805D01*
X35333708Y-32287805D02*
X35371803Y-32249709D01*
X35371803Y-32249709D02*
X35409899Y-32173519D01*
X35409899Y-32173519D02*
X35409899Y-31525900D01*
X35676565Y-31525900D02*
X36133708Y-31525900D01*
X35905136Y-32325900D02*
X35905136Y-31525900D01*
X36552756Y-31525900D02*
X36705137Y-31525900D01*
X36705137Y-31525900D02*
X36781327Y-31563995D01*
X36781327Y-31563995D02*
X36857518Y-31640185D01*
X36857518Y-31640185D02*
X36895613Y-31792566D01*
X36895613Y-31792566D02*
X36895613Y-32059233D01*
X36895613Y-32059233D02*
X36857518Y-32211614D01*
X36857518Y-32211614D02*
X36781327Y-32287805D01*
X36781327Y-32287805D02*
X36705137Y-32325900D01*
X36705137Y-32325900D02*
X36552756Y-32325900D01*
X36552756Y-32325900D02*
X36476565Y-32287805D01*
X36476565Y-32287805D02*
X36400375Y-32211614D01*
X36400375Y-32211614D02*
X36362279Y-32059233D01*
X36362279Y-32059233D02*
X36362279Y-31792566D01*
X36362279Y-31792566D02*
X36400375Y-31640185D01*
X36400375Y-31640185D02*
X36476565Y-31563995D01*
X36476565Y-31563995D02*
X36552756Y-31525900D01*
X32019423Y-33613855D02*
X32019423Y-32813855D01*
X32019423Y-32813855D02*
X32209899Y-32813855D01*
X32209899Y-32813855D02*
X32324185Y-32851950D01*
X32324185Y-32851950D02*
X32400375Y-32928140D01*
X32400375Y-32928140D02*
X32438470Y-33004331D01*
X32438470Y-33004331D02*
X32476566Y-33156712D01*
X32476566Y-33156712D02*
X32476566Y-33270998D01*
X32476566Y-33270998D02*
X32438470Y-33423379D01*
X32438470Y-33423379D02*
X32400375Y-33499569D01*
X32400375Y-33499569D02*
X32324185Y-33575760D01*
X32324185Y-33575760D02*
X32209899Y-33613855D01*
X32209899Y-33613855D02*
X32019423Y-33613855D01*
X33276566Y-33537664D02*
X33238470Y-33575760D01*
X33238470Y-33575760D02*
X33124185Y-33613855D01*
X33124185Y-33613855D02*
X33047994Y-33613855D01*
X33047994Y-33613855D02*
X32933708Y-33575760D01*
X32933708Y-33575760D02*
X32857518Y-33499569D01*
X32857518Y-33499569D02*
X32819423Y-33423379D01*
X32819423Y-33423379D02*
X32781327Y-33270998D01*
X32781327Y-33270998D02*
X32781327Y-33156712D01*
X32781327Y-33156712D02*
X32819423Y-33004331D01*
X32819423Y-33004331D02*
X32857518Y-32928140D01*
X32857518Y-32928140D02*
X32933708Y-32851950D01*
X32933708Y-32851950D02*
X33047994Y-32813855D01*
X33047994Y-32813855D02*
X33124185Y-32813855D01*
X33124185Y-32813855D02*
X33238470Y-32851950D01*
X33238470Y-32851950D02*
X33276566Y-32890045D01*
X34076566Y-33537664D02*
X34038470Y-33575760D01*
X34038470Y-33575760D02*
X33924185Y-33613855D01*
X33924185Y-33613855D02*
X33847994Y-33613855D01*
X33847994Y-33613855D02*
X33733708Y-33575760D01*
X33733708Y-33575760D02*
X33657518Y-33499569D01*
X33657518Y-33499569D02*
X33619423Y-33423379D01*
X33619423Y-33423379D02*
X33581327Y-33270998D01*
X33581327Y-33270998D02*
X33581327Y-33156712D01*
X33581327Y-33156712D02*
X33619423Y-33004331D01*
X33619423Y-33004331D02*
X33657518Y-32928140D01*
X33657518Y-32928140D02*
X33733708Y-32851950D01*
X33733708Y-32851950D02*
X33847994Y-32813855D01*
X33847994Y-32813855D02*
X33924185Y-32813855D01*
X33924185Y-32813855D02*
X34038470Y-32851950D01*
X34038470Y-32851950D02*
X34076566Y-32890045D01*
X35295613Y-33194807D02*
X35409899Y-33232902D01*
X35409899Y-33232902D02*
X35447994Y-33270998D01*
X35447994Y-33270998D02*
X35486090Y-33347188D01*
X35486090Y-33347188D02*
X35486090Y-33461474D01*
X35486090Y-33461474D02*
X35447994Y-33537664D01*
X35447994Y-33537664D02*
X35409899Y-33575760D01*
X35409899Y-33575760D02*
X35333709Y-33613855D01*
X35333709Y-33613855D02*
X35028947Y-33613855D01*
X35028947Y-33613855D02*
X35028947Y-32813855D01*
X35028947Y-32813855D02*
X35295613Y-32813855D01*
X35295613Y-32813855D02*
X35371804Y-32851950D01*
X35371804Y-32851950D02*
X35409899Y-32890045D01*
X35409899Y-32890045D02*
X35447994Y-32966236D01*
X35447994Y-32966236D02*
X35447994Y-33042426D01*
X35447994Y-33042426D02*
X35409899Y-33118617D01*
X35409899Y-33118617D02*
X35371804Y-33156712D01*
X35371804Y-33156712D02*
X35295613Y-33194807D01*
X35295613Y-33194807D02*
X35028947Y-33194807D01*
X36209899Y-33613855D02*
X35828947Y-33613855D01*
X35828947Y-33613855D02*
X35828947Y-32813855D01*
X36628947Y-32813855D02*
X36781328Y-32813855D01*
X36781328Y-32813855D02*
X36857518Y-32851950D01*
X36857518Y-32851950D02*
X36933709Y-32928140D01*
X36933709Y-32928140D02*
X36971804Y-33080521D01*
X36971804Y-33080521D02*
X36971804Y-33347188D01*
X36971804Y-33347188D02*
X36933709Y-33499569D01*
X36933709Y-33499569D02*
X36857518Y-33575760D01*
X36857518Y-33575760D02*
X36781328Y-33613855D01*
X36781328Y-33613855D02*
X36628947Y-33613855D01*
X36628947Y-33613855D02*
X36552756Y-33575760D01*
X36552756Y-33575760D02*
X36476566Y-33499569D01*
X36476566Y-33499569D02*
X36438470Y-33347188D01*
X36438470Y-33347188D02*
X36438470Y-33080521D01*
X36438470Y-33080521D02*
X36476566Y-32928140D01*
X36476566Y-32928140D02*
X36552756Y-32851950D01*
X36552756Y-32851950D02*
X36628947Y-32813855D01*
X37771804Y-33537664D02*
X37733708Y-33575760D01*
X37733708Y-33575760D02*
X37619423Y-33613855D01*
X37619423Y-33613855D02*
X37543232Y-33613855D01*
X37543232Y-33613855D02*
X37428946Y-33575760D01*
X37428946Y-33575760D02*
X37352756Y-33499569D01*
X37352756Y-33499569D02*
X37314661Y-33423379D01*
X37314661Y-33423379D02*
X37276565Y-33270998D01*
X37276565Y-33270998D02*
X37276565Y-33156712D01*
X37276565Y-33156712D02*
X37314661Y-33004331D01*
X37314661Y-33004331D02*
X37352756Y-32928140D01*
X37352756Y-32928140D02*
X37428946Y-32851950D01*
X37428946Y-32851950D02*
X37543232Y-32813855D01*
X37543232Y-32813855D02*
X37619423Y-32813855D01*
X37619423Y-32813855D02*
X37733708Y-32851950D01*
X37733708Y-32851950D02*
X37771804Y-32890045D01*
X38114661Y-33613855D02*
X38114661Y-32813855D01*
X38571804Y-33613855D02*
X38228946Y-33156712D01*
X38571804Y-32813855D02*
X38114661Y-33270998D01*
X32019423Y-34901810D02*
X32019423Y-34101810D01*
X32019423Y-34101810D02*
X32209899Y-34101810D01*
X32209899Y-34101810D02*
X32324185Y-34139905D01*
X32324185Y-34139905D02*
X32400375Y-34216095D01*
X32400375Y-34216095D02*
X32438470Y-34292286D01*
X32438470Y-34292286D02*
X32476566Y-34444667D01*
X32476566Y-34444667D02*
X32476566Y-34558953D01*
X32476566Y-34558953D02*
X32438470Y-34711334D01*
X32438470Y-34711334D02*
X32400375Y-34787524D01*
X32400375Y-34787524D02*
X32324185Y-34863715D01*
X32324185Y-34863715D02*
X32209899Y-34901810D01*
X32209899Y-34901810D02*
X32019423Y-34901810D01*
X32819423Y-34482762D02*
X33086089Y-34482762D01*
X33200375Y-34901810D02*
X32819423Y-34901810D01*
X32819423Y-34901810D02*
X32819423Y-34101810D01*
X32819423Y-34101810D02*
X33200375Y-34101810D01*
X33428947Y-34101810D02*
X33886090Y-34101810D01*
X33657518Y-34901810D02*
X33657518Y-34101810D01*
X34152757Y-34482762D02*
X34419423Y-34482762D01*
X34533709Y-34901810D02*
X34152757Y-34901810D01*
X34152757Y-34901810D02*
X34152757Y-34101810D01*
X34152757Y-34101810D02*
X34533709Y-34101810D01*
X35333710Y-34825619D02*
X35295614Y-34863715D01*
X35295614Y-34863715D02*
X35181329Y-34901810D01*
X35181329Y-34901810D02*
X35105138Y-34901810D01*
X35105138Y-34901810D02*
X34990852Y-34863715D01*
X34990852Y-34863715D02*
X34914662Y-34787524D01*
X34914662Y-34787524D02*
X34876567Y-34711334D01*
X34876567Y-34711334D02*
X34838471Y-34558953D01*
X34838471Y-34558953D02*
X34838471Y-34444667D01*
X34838471Y-34444667D02*
X34876567Y-34292286D01*
X34876567Y-34292286D02*
X34914662Y-34216095D01*
X34914662Y-34216095D02*
X34990852Y-34139905D01*
X34990852Y-34139905D02*
X35105138Y-34101810D01*
X35105138Y-34101810D02*
X35181329Y-34101810D01*
X35181329Y-34101810D02*
X35295614Y-34139905D01*
X35295614Y-34139905D02*
X35333710Y-34178000D01*
X35562281Y-34101810D02*
X36019424Y-34101810D01*
X35790852Y-34901810D02*
X35790852Y-34101810D01*
X36438472Y-34101810D02*
X36590853Y-34101810D01*
X36590853Y-34101810D02*
X36667043Y-34139905D01*
X36667043Y-34139905D02*
X36743234Y-34216095D01*
X36743234Y-34216095D02*
X36781329Y-34368476D01*
X36781329Y-34368476D02*
X36781329Y-34635143D01*
X36781329Y-34635143D02*
X36743234Y-34787524D01*
X36743234Y-34787524D02*
X36667043Y-34863715D01*
X36667043Y-34863715D02*
X36590853Y-34901810D01*
X36590853Y-34901810D02*
X36438472Y-34901810D01*
X36438472Y-34901810D02*
X36362281Y-34863715D01*
X36362281Y-34863715D02*
X36286091Y-34787524D01*
X36286091Y-34787524D02*
X36247995Y-34635143D01*
X36247995Y-34635143D02*
X36247995Y-34368476D01*
X36247995Y-34368476D02*
X36286091Y-34216095D01*
X36286091Y-34216095D02*
X36362281Y-34139905D01*
X36362281Y-34139905D02*
X36438472Y-34101810D01*
X37581329Y-34901810D02*
X37314662Y-34520857D01*
X37124186Y-34901810D02*
X37124186Y-34101810D01*
X37124186Y-34101810D02*
X37428948Y-34101810D01*
X37428948Y-34101810D02*
X37505138Y-34139905D01*
X37505138Y-34139905D02*
X37543233Y-34178000D01*
X37543233Y-34178000D02*
X37581329Y-34254191D01*
X37581329Y-34254191D02*
X37581329Y-34368476D01*
X37581329Y-34368476D02*
X37543233Y-34444667D01*
X37543233Y-34444667D02*
X37505138Y-34482762D01*
X37505138Y-34482762D02*
X37428948Y-34520857D01*
X37428948Y-34520857D02*
X37124186Y-34520857D01*
X32171804Y-51169878D02*
X32324185Y-51169878D01*
X32324185Y-51169878D02*
X32400375Y-51207973D01*
X32400375Y-51207973D02*
X32476566Y-51284163D01*
X32476566Y-51284163D02*
X32514661Y-51436544D01*
X32514661Y-51436544D02*
X32514661Y-51703211D01*
X32514661Y-51703211D02*
X32476566Y-51855592D01*
X32476566Y-51855592D02*
X32400375Y-51931783D01*
X32400375Y-51931783D02*
X32324185Y-51969878D01*
X32324185Y-51969878D02*
X32171804Y-51969878D01*
X32171804Y-51969878D02*
X32095613Y-51931783D01*
X32095613Y-51931783D02*
X32019423Y-51855592D01*
X32019423Y-51855592D02*
X31981327Y-51703211D01*
X31981327Y-51703211D02*
X31981327Y-51436544D01*
X31981327Y-51436544D02*
X32019423Y-51284163D01*
X32019423Y-51284163D02*
X32095613Y-51207973D01*
X32095613Y-51207973D02*
X32171804Y-51169878D01*
X32857518Y-51169878D02*
X32857518Y-51817497D01*
X32857518Y-51817497D02*
X32895613Y-51893687D01*
X32895613Y-51893687D02*
X32933708Y-51931783D01*
X32933708Y-51931783D02*
X33009899Y-51969878D01*
X33009899Y-51969878D02*
X33162280Y-51969878D01*
X33162280Y-51969878D02*
X33238470Y-51931783D01*
X33238470Y-51931783D02*
X33276565Y-51893687D01*
X33276565Y-51893687D02*
X33314661Y-51817497D01*
X33314661Y-51817497D02*
X33314661Y-51169878D01*
X33581327Y-51169878D02*
X34038470Y-51169878D01*
X33809898Y-51969878D02*
X33809898Y-51169878D01*
X34305137Y-51969878D02*
X34305137Y-51169878D01*
X34305137Y-51169878D02*
X34609899Y-51169878D01*
X34609899Y-51169878D02*
X34686089Y-51207973D01*
X34686089Y-51207973D02*
X34724184Y-51246068D01*
X34724184Y-51246068D02*
X34762280Y-51322259D01*
X34762280Y-51322259D02*
X34762280Y-51436544D01*
X34762280Y-51436544D02*
X34724184Y-51512735D01*
X34724184Y-51512735D02*
X34686089Y-51550830D01*
X34686089Y-51550830D02*
X34609899Y-51588925D01*
X34609899Y-51588925D02*
X34305137Y-51588925D01*
X35105137Y-51169878D02*
X35105137Y-51817497D01*
X35105137Y-51817497D02*
X35143232Y-51893687D01*
X35143232Y-51893687D02*
X35181327Y-51931783D01*
X35181327Y-51931783D02*
X35257518Y-51969878D01*
X35257518Y-51969878D02*
X35409899Y-51969878D01*
X35409899Y-51969878D02*
X35486089Y-51931783D01*
X35486089Y-51931783D02*
X35524184Y-51893687D01*
X35524184Y-51893687D02*
X35562280Y-51817497D01*
X35562280Y-51817497D02*
X35562280Y-51169878D01*
X35828946Y-51169878D02*
X36286089Y-51169878D01*
X36057517Y-51969878D02*
X36057517Y-51169878D01*
X32019423Y-53257833D02*
X32019423Y-52457833D01*
X32019423Y-52838785D02*
X32476566Y-52838785D01*
X32476566Y-53257833D02*
X32476566Y-52457833D01*
X32857518Y-53257833D02*
X32857518Y-52457833D01*
X33657517Y-52495928D02*
X33581327Y-52457833D01*
X33581327Y-52457833D02*
X33467041Y-52457833D01*
X33467041Y-52457833D02*
X33352755Y-52495928D01*
X33352755Y-52495928D02*
X33276565Y-52572118D01*
X33276565Y-52572118D02*
X33238470Y-52648309D01*
X33238470Y-52648309D02*
X33200374Y-52800690D01*
X33200374Y-52800690D02*
X33200374Y-52914976D01*
X33200374Y-52914976D02*
X33238470Y-53067357D01*
X33238470Y-53067357D02*
X33276565Y-53143547D01*
X33276565Y-53143547D02*
X33352755Y-53219738D01*
X33352755Y-53219738D02*
X33467041Y-53257833D01*
X33467041Y-53257833D02*
X33543232Y-53257833D01*
X33543232Y-53257833D02*
X33657517Y-53219738D01*
X33657517Y-53219738D02*
X33695613Y-53181642D01*
X33695613Y-53181642D02*
X33695613Y-52914976D01*
X33695613Y-52914976D02*
X33543232Y-52914976D01*
X34038470Y-53257833D02*
X34038470Y-52457833D01*
X34038470Y-52838785D02*
X34495613Y-52838785D01*
X34495613Y-53257833D02*
X34495613Y-52457833D01*
X34876565Y-52838785D02*
X35486089Y-52838785D01*
X35486089Y-53067357D02*
X34876565Y-53067357D01*
X36019422Y-52457833D02*
X36171803Y-52457833D01*
X36171803Y-52457833D02*
X36247993Y-52495928D01*
X36247993Y-52495928D02*
X36324184Y-52572118D01*
X36324184Y-52572118D02*
X36362279Y-52724499D01*
X36362279Y-52724499D02*
X36362279Y-52991166D01*
X36362279Y-52991166D02*
X36324184Y-53143547D01*
X36324184Y-53143547D02*
X36247993Y-53219738D01*
X36247993Y-53219738D02*
X36171803Y-53257833D01*
X36171803Y-53257833D02*
X36019422Y-53257833D01*
X36019422Y-53257833D02*
X35943231Y-53219738D01*
X35943231Y-53219738D02*
X35867041Y-53143547D01*
X35867041Y-53143547D02*
X35828945Y-52991166D01*
X35828945Y-52991166D02*
X35828945Y-52724499D01*
X35828945Y-52724499D02*
X35867041Y-52572118D01*
X35867041Y-52572118D02*
X35943231Y-52495928D01*
X35943231Y-52495928D02*
X36019422Y-52457833D01*
X37162279Y-53181642D02*
X37124183Y-53219738D01*
X37124183Y-53219738D02*
X37009898Y-53257833D01*
X37009898Y-53257833D02*
X36933707Y-53257833D01*
X36933707Y-53257833D02*
X36819421Y-53219738D01*
X36819421Y-53219738D02*
X36743231Y-53143547D01*
X36743231Y-53143547D02*
X36705136Y-53067357D01*
X36705136Y-53067357D02*
X36667040Y-52914976D01*
X36667040Y-52914976D02*
X36667040Y-52800690D01*
X36667040Y-52800690D02*
X36705136Y-52648309D01*
X36705136Y-52648309D02*
X36743231Y-52572118D01*
X36743231Y-52572118D02*
X36819421Y-52495928D01*
X36819421Y-52495928D02*
X36933707Y-52457833D01*
X36933707Y-52457833D02*
X37009898Y-52457833D01*
X37009898Y-52457833D02*
X37124183Y-52495928D01*
X37124183Y-52495928D02*
X37162279Y-52534023D01*
X37962279Y-53181642D02*
X37924183Y-53219738D01*
X37924183Y-53219738D02*
X37809898Y-53257833D01*
X37809898Y-53257833D02*
X37733707Y-53257833D01*
X37733707Y-53257833D02*
X37619421Y-53219738D01*
X37619421Y-53219738D02*
X37543231Y-53143547D01*
X37543231Y-53143547D02*
X37505136Y-53067357D01*
X37505136Y-53067357D02*
X37467040Y-52914976D01*
X37467040Y-52914976D02*
X37467040Y-52800690D01*
X37467040Y-52800690D02*
X37505136Y-52648309D01*
X37505136Y-52648309D02*
X37543231Y-52572118D01*
X37543231Y-52572118D02*
X37619421Y-52495928D01*
X37619421Y-52495928D02*
X37733707Y-52457833D01*
X37733707Y-52457833D02*
X37809898Y-52457833D01*
X37809898Y-52457833D02*
X37924183Y-52495928D01*
X37924183Y-52495928D02*
X37962279Y-52534023D01*
X38305136Y-52457833D02*
X38305136Y-53105452D01*
X38305136Y-53105452D02*
X38343231Y-53181642D01*
X38343231Y-53181642D02*
X38381326Y-53219738D01*
X38381326Y-53219738D02*
X38457517Y-53257833D01*
X38457517Y-53257833D02*
X38609898Y-53257833D01*
X38609898Y-53257833D02*
X38686088Y-53219738D01*
X38686088Y-53219738D02*
X38724183Y-53181642D01*
X38724183Y-53181642D02*
X38762279Y-53105452D01*
X38762279Y-53105452D02*
X38762279Y-52457833D01*
X39143231Y-53257833D02*
X39143231Y-52457833D01*
X39143231Y-52457833D02*
X39447993Y-52457833D01*
X39447993Y-52457833D02*
X39524183Y-52495928D01*
X39524183Y-52495928D02*
X39562278Y-52534023D01*
X39562278Y-52534023D02*
X39600374Y-52610214D01*
X39600374Y-52610214D02*
X39600374Y-52724499D01*
X39600374Y-52724499D02*
X39562278Y-52800690D01*
X39562278Y-52800690D02*
X39524183Y-52838785D01*
X39524183Y-52838785D02*
X39447993Y-52876880D01*
X39447993Y-52876880D02*
X39143231Y-52876880D01*
X39943231Y-53257833D02*
X39943231Y-52457833D01*
X40324183Y-52838785D02*
X40590849Y-52838785D01*
X40705135Y-53257833D02*
X40324183Y-53257833D01*
X40324183Y-53257833D02*
X40324183Y-52457833D01*
X40324183Y-52457833D02*
X40705135Y-52457833D01*
X41047993Y-53257833D02*
X41047993Y-52457833D01*
X41047993Y-52457833D02*
X41238469Y-52457833D01*
X41238469Y-52457833D02*
X41352755Y-52495928D01*
X41352755Y-52495928D02*
X41428945Y-52572118D01*
X41428945Y-52572118D02*
X41467040Y-52648309D01*
X41467040Y-52648309D02*
X41505136Y-52800690D01*
X41505136Y-52800690D02*
X41505136Y-52914976D01*
X41505136Y-52914976D02*
X41467040Y-53067357D01*
X41467040Y-53067357D02*
X41428945Y-53143547D01*
X41428945Y-53143547D02*
X41352755Y-53219738D01*
X41352755Y-53219738D02*
X41238469Y-53257833D01*
X41238469Y-53257833D02*
X41047993Y-53257833D01*
D11*
X32417386Y-37223622D02*
X32374529Y-37266480D01*
X32374529Y-37266480D02*
X32245957Y-37309337D01*
X32245957Y-37309337D02*
X32160243Y-37309337D01*
X32160243Y-37309337D02*
X32031672Y-37266480D01*
X32031672Y-37266480D02*
X31945957Y-37180765D01*
X31945957Y-37180765D02*
X31903100Y-37095051D01*
X31903100Y-37095051D02*
X31860243Y-36923622D01*
X31860243Y-36923622D02*
X31860243Y-36795051D01*
X31860243Y-36795051D02*
X31903100Y-36623622D01*
X31903100Y-36623622D02*
X31945957Y-36537908D01*
X31945957Y-36537908D02*
X32031672Y-36452194D01*
X32031672Y-36452194D02*
X32160243Y-36409337D01*
X32160243Y-36409337D02*
X32245957Y-36409337D01*
X32245957Y-36409337D02*
X32374529Y-36452194D01*
X32374529Y-36452194D02*
X32417386Y-36495051D01*
X32674529Y-36409337D02*
X33188815Y-36409337D01*
X32931672Y-37309337D02*
X32931672Y-36409337D01*
X33960243Y-37309337D02*
X33445957Y-37309337D01*
X33703100Y-37309337D02*
X33703100Y-36409337D01*
X33703100Y-36409337D02*
X33617386Y-36537908D01*
X33617386Y-36537908D02*
X33531671Y-36623622D01*
X33531671Y-36623622D02*
X33445957Y-36666480D01*
X32417386Y-55223622D02*
X32374529Y-55266480D01*
X32374529Y-55266480D02*
X32245957Y-55309337D01*
X32245957Y-55309337D02*
X32160243Y-55309337D01*
X32160243Y-55309337D02*
X32031672Y-55266480D01*
X32031672Y-55266480D02*
X31945957Y-55180765D01*
X31945957Y-55180765D02*
X31903100Y-55095051D01*
X31903100Y-55095051D02*
X31860243Y-54923622D01*
X31860243Y-54923622D02*
X31860243Y-54795051D01*
X31860243Y-54795051D02*
X31903100Y-54623622D01*
X31903100Y-54623622D02*
X31945957Y-54537908D01*
X31945957Y-54537908D02*
X32031672Y-54452194D01*
X32031672Y-54452194D02*
X32160243Y-54409337D01*
X32160243Y-54409337D02*
X32245957Y-54409337D01*
X32245957Y-54409337D02*
X32374529Y-54452194D01*
X32374529Y-54452194D02*
X32417386Y-54495051D01*
X32674529Y-54409337D02*
X33188815Y-54409337D01*
X32931672Y-55309337D02*
X32931672Y-54409337D01*
X33445957Y-54495051D02*
X33488814Y-54452194D01*
X33488814Y-54452194D02*
X33574529Y-54409337D01*
X33574529Y-54409337D02*
X33788814Y-54409337D01*
X33788814Y-54409337D02*
X33874529Y-54452194D01*
X33874529Y-54452194D02*
X33917386Y-54495051D01*
X33917386Y-54495051D02*
X33960243Y-54580765D01*
X33960243Y-54580765D02*
X33960243Y-54666480D01*
X33960243Y-54666480D02*
X33917386Y-54795051D01*
X33917386Y-54795051D02*
X33403100Y-55309337D01*
X33403100Y-55309337D02*
X33960243Y-55309337D01*
D12*
X37704819Y-60083333D02*
X38419104Y-60083333D01*
X38419104Y-60083333D02*
X38561961Y-60130952D01*
X38561961Y-60130952D02*
X38657200Y-60226190D01*
X38657200Y-60226190D02*
X38704819Y-60369047D01*
X38704819Y-60369047D02*
X38704819Y-60464285D01*
X37800057Y-59654761D02*
X37752438Y-59607142D01*
X37752438Y-59607142D02*
X37704819Y-59511904D01*
X37704819Y-59511904D02*
X37704819Y-59273809D01*
X37704819Y-59273809D02*
X37752438Y-59178571D01*
X37752438Y-59178571D02*
X37800057Y-59130952D01*
X37800057Y-59130952D02*
X37895295Y-59083333D01*
X37895295Y-59083333D02*
X37990533Y-59083333D01*
X37990533Y-59083333D02*
X38133390Y-59130952D01*
X38133390Y-59130952D02*
X38704819Y-59702380D01*
X38704819Y-59702380D02*
X38704819Y-59083333D01*
X67133333Y-49929580D02*
X67085714Y-49977200D01*
X67085714Y-49977200D02*
X66942857Y-50024819D01*
X66942857Y-50024819D02*
X66847619Y-50024819D01*
X66847619Y-50024819D02*
X66704762Y-49977200D01*
X66704762Y-49977200D02*
X66609524Y-49881961D01*
X66609524Y-49881961D02*
X66561905Y-49786723D01*
X66561905Y-49786723D02*
X66514286Y-49596247D01*
X66514286Y-49596247D02*
X66514286Y-49453390D01*
X66514286Y-49453390D02*
X66561905Y-49262914D01*
X66561905Y-49262914D02*
X66609524Y-49167676D01*
X66609524Y-49167676D02*
X66704762Y-49072438D01*
X66704762Y-49072438D02*
X66847619Y-49024819D01*
X66847619Y-49024819D02*
X66942857Y-49024819D01*
X66942857Y-49024819D02*
X67085714Y-49072438D01*
X67085714Y-49072438D02*
X67133333Y-49120057D01*
X67514286Y-49120057D02*
X67561905Y-49072438D01*
X67561905Y-49072438D02*
X67657143Y-49024819D01*
X67657143Y-49024819D02*
X67895238Y-49024819D01*
X67895238Y-49024819D02*
X67990476Y-49072438D01*
X67990476Y-49072438D02*
X68038095Y-49120057D01*
X68038095Y-49120057D02*
X68085714Y-49215295D01*
X68085714Y-49215295D02*
X68085714Y-49310533D01*
X68085714Y-49310533D02*
X68038095Y-49453390D01*
X68038095Y-49453390D02*
X67466667Y-50024819D01*
X67466667Y-50024819D02*
X68085714Y-50024819D01*
X59519642Y-39804819D02*
X59186309Y-39328628D01*
X58948214Y-39804819D02*
X58948214Y-38804819D01*
X58948214Y-38804819D02*
X59329166Y-38804819D01*
X59329166Y-38804819D02*
X59424404Y-38852438D01*
X59424404Y-38852438D02*
X59472023Y-38900057D01*
X59472023Y-38900057D02*
X59519642Y-38995295D01*
X59519642Y-38995295D02*
X59519642Y-39138152D01*
X59519642Y-39138152D02*
X59472023Y-39233390D01*
X59472023Y-39233390D02*
X59424404Y-39281009D01*
X59424404Y-39281009D02*
X59329166Y-39328628D01*
X59329166Y-39328628D02*
X58948214Y-39328628D01*
X60472023Y-39804819D02*
X59900595Y-39804819D01*
X60186309Y-39804819D02*
X60186309Y-38804819D01*
X60186309Y-38804819D02*
X60091071Y-38947676D01*
X60091071Y-38947676D02*
X59995833Y-39042914D01*
X59995833Y-39042914D02*
X59900595Y-39090533D01*
X61091071Y-38804819D02*
X61186309Y-38804819D01*
X61186309Y-38804819D02*
X61281547Y-38852438D01*
X61281547Y-38852438D02*
X61329166Y-38900057D01*
X61329166Y-38900057D02*
X61376785Y-38995295D01*
X61376785Y-38995295D02*
X61424404Y-39185771D01*
X61424404Y-39185771D02*
X61424404Y-39423866D01*
X61424404Y-39423866D02*
X61376785Y-39614342D01*
X61376785Y-39614342D02*
X61329166Y-39709580D01*
X61329166Y-39709580D02*
X61281547Y-39757200D01*
X61281547Y-39757200D02*
X61186309Y-39804819D01*
X61186309Y-39804819D02*
X61091071Y-39804819D01*
X61091071Y-39804819D02*
X60995833Y-39757200D01*
X60995833Y-39757200D02*
X60948214Y-39709580D01*
X60948214Y-39709580D02*
X60900595Y-39614342D01*
X60900595Y-39614342D02*
X60852976Y-39423866D01*
X60852976Y-39423866D02*
X60852976Y-39185771D01*
X60852976Y-39185771D02*
X60900595Y-38995295D01*
X60900595Y-38995295D02*
X60948214Y-38900057D01*
X60948214Y-38900057D02*
X60995833Y-38852438D01*
X60995833Y-38852438D02*
X61091071Y-38804819D01*
X66988095Y-44056819D02*
X67559523Y-44056819D01*
X67273809Y-45056819D02*
X67273809Y-44056819D01*
X67892857Y-45056819D02*
X67892857Y-44056819D01*
X67892857Y-44056819D02*
X68273809Y-44056819D01*
X68273809Y-44056819D02*
X68369047Y-44104438D01*
X68369047Y-44104438D02*
X68416666Y-44152057D01*
X68416666Y-44152057D02*
X68464285Y-44247295D01*
X68464285Y-44247295D02*
X68464285Y-44390152D01*
X68464285Y-44390152D02*
X68416666Y-44485390D01*
X68416666Y-44485390D02*
X68369047Y-44533009D01*
X68369047Y-44533009D02*
X68273809Y-44580628D01*
X68273809Y-44580628D02*
X67892857Y-44580628D01*
X69369047Y-44056819D02*
X68892857Y-44056819D01*
X68892857Y-44056819D02*
X68845238Y-44533009D01*
X68845238Y-44533009D02*
X68892857Y-44485390D01*
X68892857Y-44485390D02*
X68988095Y-44437771D01*
X68988095Y-44437771D02*
X69226190Y-44437771D01*
X69226190Y-44437771D02*
X69321428Y-44485390D01*
X69321428Y-44485390D02*
X69369047Y-44533009D01*
X69369047Y-44533009D02*
X69416666Y-44628247D01*
X69416666Y-44628247D02*
X69416666Y-44866342D01*
X69416666Y-44866342D02*
X69369047Y-44961580D01*
X69369047Y-44961580D02*
X69321428Y-45009200D01*
X69321428Y-45009200D02*
X69226190Y-45056819D01*
X69226190Y-45056819D02*
X68988095Y-45056819D01*
X68988095Y-45056819D02*
X68892857Y-45009200D01*
X68892857Y-45009200D02*
X68845238Y-44961580D01*
X48011905Y-37704819D02*
X48011905Y-36704819D01*
X48011905Y-36704819D02*
X48250000Y-36704819D01*
X48250000Y-36704819D02*
X48392857Y-36752438D01*
X48392857Y-36752438D02*
X48488095Y-36847676D01*
X48488095Y-36847676D02*
X48535714Y-36942914D01*
X48535714Y-36942914D02*
X48583333Y-37133390D01*
X48583333Y-37133390D02*
X48583333Y-37276247D01*
X48583333Y-37276247D02*
X48535714Y-37466723D01*
X48535714Y-37466723D02*
X48488095Y-37561961D01*
X48488095Y-37561961D02*
X48392857Y-37657200D01*
X48392857Y-37657200D02*
X48250000Y-37704819D01*
X48250000Y-37704819D02*
X48011905Y-37704819D01*
X49535714Y-37704819D02*
X48964286Y-37704819D01*
X49250000Y-37704819D02*
X49250000Y-36704819D01*
X49250000Y-36704819D02*
X49154762Y-36847676D01*
X49154762Y-36847676D02*
X49059524Y-36942914D01*
X49059524Y-36942914D02*
X48964286Y-36990533D01*
X63488095Y-33204819D02*
X63488095Y-32204819D01*
X63488095Y-32681009D02*
X64059523Y-32681009D01*
X64059523Y-33204819D02*
X64059523Y-32204819D01*
X64488095Y-32300057D02*
X64535714Y-32252438D01*
X64535714Y-32252438D02*
X64630952Y-32204819D01*
X64630952Y-32204819D02*
X64869047Y-32204819D01*
X64869047Y-32204819D02*
X64964285Y-32252438D01*
X64964285Y-32252438D02*
X65011904Y-32300057D01*
X65011904Y-32300057D02*
X65059523Y-32395295D01*
X65059523Y-32395295D02*
X65059523Y-32490533D01*
X65059523Y-32490533D02*
X65011904Y-32633390D01*
X65011904Y-32633390D02*
X64440476Y-33204819D01*
X64440476Y-33204819D02*
X65059523Y-33204819D01*
X57738095Y-62954819D02*
X58309523Y-62954819D01*
X58023809Y-63954819D02*
X58023809Y-62954819D01*
X58642857Y-63954819D02*
X58642857Y-62954819D01*
X58642857Y-62954819D02*
X59023809Y-62954819D01*
X59023809Y-62954819D02*
X59119047Y-63002438D01*
X59119047Y-63002438D02*
X59166666Y-63050057D01*
X59166666Y-63050057D02*
X59214285Y-63145295D01*
X59214285Y-63145295D02*
X59214285Y-63288152D01*
X59214285Y-63288152D02*
X59166666Y-63383390D01*
X59166666Y-63383390D02*
X59119047Y-63431009D01*
X59119047Y-63431009D02*
X59023809Y-63478628D01*
X59023809Y-63478628D02*
X58642857Y-63478628D01*
X60071428Y-63288152D02*
X60071428Y-63954819D01*
X59833333Y-62907200D02*
X59595238Y-63621485D01*
X59595238Y-63621485D02*
X60214285Y-63621485D01*
X41704819Y-60166666D02*
X41228628Y-60499999D01*
X41704819Y-60738094D02*
X40704819Y-60738094D01*
X40704819Y-60738094D02*
X40704819Y-60357142D01*
X40704819Y-60357142D02*
X40752438Y-60261904D01*
X40752438Y-60261904D02*
X40800057Y-60214285D01*
X40800057Y-60214285D02*
X40895295Y-60166666D01*
X40895295Y-60166666D02*
X41038152Y-60166666D01*
X41038152Y-60166666D02*
X41133390Y-60214285D01*
X41133390Y-60214285D02*
X41181009Y-60261904D01*
X41181009Y-60261904D02*
X41228628Y-60357142D01*
X41228628Y-60357142D02*
X41228628Y-60738094D01*
X40704819Y-59833332D02*
X40704819Y-59214285D01*
X40704819Y-59214285D02*
X41085771Y-59547618D01*
X41085771Y-59547618D02*
X41085771Y-59404761D01*
X41085771Y-59404761D02*
X41133390Y-59309523D01*
X41133390Y-59309523D02*
X41181009Y-59261904D01*
X41181009Y-59261904D02*
X41276247Y-59214285D01*
X41276247Y-59214285D02*
X41514342Y-59214285D01*
X41514342Y-59214285D02*
X41609580Y-59261904D01*
X41609580Y-59261904D02*
X41657200Y-59309523D01*
X41657200Y-59309523D02*
X41704819Y-59404761D01*
X41704819Y-59404761D02*
X41704819Y-59690475D01*
X41704819Y-59690475D02*
X41657200Y-59785713D01*
X41657200Y-59785713D02*
X41609580Y-59833332D01*
X41704819Y-38166666D02*
X41228628Y-38499999D01*
X41704819Y-38738094D02*
X40704819Y-38738094D01*
X40704819Y-38738094D02*
X40704819Y-38357142D01*
X40704819Y-38357142D02*
X40752438Y-38261904D01*
X40752438Y-38261904D02*
X40800057Y-38214285D01*
X40800057Y-38214285D02*
X40895295Y-38166666D01*
X40895295Y-38166666D02*
X41038152Y-38166666D01*
X41038152Y-38166666D02*
X41133390Y-38214285D01*
X41133390Y-38214285D02*
X41181009Y-38261904D01*
X41181009Y-38261904D02*
X41228628Y-38357142D01*
X41228628Y-38357142D02*
X41228628Y-38738094D01*
X41704819Y-37214285D02*
X41704819Y-37785713D01*
X41704819Y-37499999D02*
X40704819Y-37499999D01*
X40704819Y-37499999D02*
X40847676Y-37595237D01*
X40847676Y-37595237D02*
X40942914Y-37690475D01*
X40942914Y-37690475D02*
X40990533Y-37785713D01*
X55554819Y-46004166D02*
X55078628Y-46337499D01*
X55554819Y-46575594D02*
X54554819Y-46575594D01*
X54554819Y-46575594D02*
X54554819Y-46194642D01*
X54554819Y-46194642D02*
X54602438Y-46099404D01*
X54602438Y-46099404D02*
X54650057Y-46051785D01*
X54650057Y-46051785D02*
X54745295Y-46004166D01*
X54745295Y-46004166D02*
X54888152Y-46004166D01*
X54888152Y-46004166D02*
X54983390Y-46051785D01*
X54983390Y-46051785D02*
X55031009Y-46099404D01*
X55031009Y-46099404D02*
X55078628Y-46194642D01*
X55078628Y-46194642D02*
X55078628Y-46575594D01*
X54983390Y-45432737D02*
X54935771Y-45527975D01*
X54935771Y-45527975D02*
X54888152Y-45575594D01*
X54888152Y-45575594D02*
X54792914Y-45623213D01*
X54792914Y-45623213D02*
X54745295Y-45623213D01*
X54745295Y-45623213D02*
X54650057Y-45575594D01*
X54650057Y-45575594D02*
X54602438Y-45527975D01*
X54602438Y-45527975D02*
X54554819Y-45432737D01*
X54554819Y-45432737D02*
X54554819Y-45242261D01*
X54554819Y-45242261D02*
X54602438Y-45147023D01*
X54602438Y-45147023D02*
X54650057Y-45099404D01*
X54650057Y-45099404D02*
X54745295Y-45051785D01*
X54745295Y-45051785D02*
X54792914Y-45051785D01*
X54792914Y-45051785D02*
X54888152Y-45099404D01*
X54888152Y-45099404D02*
X54935771Y-45147023D01*
X54935771Y-45147023D02*
X54983390Y-45242261D01*
X54983390Y-45242261D02*
X54983390Y-45432737D01*
X54983390Y-45432737D02*
X55031009Y-45527975D01*
X55031009Y-45527975D02*
X55078628Y-45575594D01*
X55078628Y-45575594D02*
X55173866Y-45623213D01*
X55173866Y-45623213D02*
X55364342Y-45623213D01*
X55364342Y-45623213D02*
X55459580Y-45575594D01*
X55459580Y-45575594D02*
X55507200Y-45527975D01*
X55507200Y-45527975D02*
X55554819Y-45432737D01*
X55554819Y-45432737D02*
X55554819Y-45242261D01*
X55554819Y-45242261D02*
X55507200Y-45147023D01*
X55507200Y-45147023D02*
X55459580Y-45099404D01*
X55459580Y-45099404D02*
X55364342Y-45051785D01*
X55364342Y-45051785D02*
X55173866Y-45051785D01*
X55173866Y-45051785D02*
X55078628Y-45099404D01*
X55078628Y-45099404D02*
X55031009Y-45147023D01*
X55031009Y-45147023D02*
X54983390Y-45242261D01*
X37704819Y-42333333D02*
X38419104Y-42333333D01*
X38419104Y-42333333D02*
X38561961Y-42380952D01*
X38561961Y-42380952D02*
X38657200Y-42476190D01*
X38657200Y-42476190D02*
X38704819Y-42619047D01*
X38704819Y-42619047D02*
X38704819Y-42714285D01*
X38704819Y-41333333D02*
X38704819Y-41904761D01*
X38704819Y-41619047D02*
X37704819Y-41619047D01*
X37704819Y-41619047D02*
X37847676Y-41714285D01*
X37847676Y-41714285D02*
X37942914Y-41809523D01*
X37942914Y-41809523D02*
X37990533Y-41904761D01*
X55554819Y-54754166D02*
X55078628Y-55087499D01*
X55554819Y-55325594D02*
X54554819Y-55325594D01*
X54554819Y-55325594D02*
X54554819Y-54944642D01*
X54554819Y-54944642D02*
X54602438Y-54849404D01*
X54602438Y-54849404D02*
X54650057Y-54801785D01*
X54650057Y-54801785D02*
X54745295Y-54754166D01*
X54745295Y-54754166D02*
X54888152Y-54754166D01*
X54888152Y-54754166D02*
X54983390Y-54801785D01*
X54983390Y-54801785D02*
X55031009Y-54849404D01*
X55031009Y-54849404D02*
X55078628Y-54944642D01*
X55078628Y-54944642D02*
X55078628Y-55325594D01*
X55554819Y-54277975D02*
X55554819Y-54087499D01*
X55554819Y-54087499D02*
X55507200Y-53992261D01*
X55507200Y-53992261D02*
X55459580Y-53944642D01*
X55459580Y-53944642D02*
X55316723Y-53849404D01*
X55316723Y-53849404D02*
X55126247Y-53801785D01*
X55126247Y-53801785D02*
X54745295Y-53801785D01*
X54745295Y-53801785D02*
X54650057Y-53849404D01*
X54650057Y-53849404D02*
X54602438Y-53897023D01*
X54602438Y-53897023D02*
X54554819Y-53992261D01*
X54554819Y-53992261D02*
X54554819Y-54182737D01*
X54554819Y-54182737D02*
X54602438Y-54277975D01*
X54602438Y-54277975D02*
X54650057Y-54325594D01*
X54650057Y-54325594D02*
X54745295Y-54373213D01*
X54745295Y-54373213D02*
X54983390Y-54373213D01*
X54983390Y-54373213D02*
X55078628Y-54325594D01*
X55078628Y-54325594D02*
X55126247Y-54277975D01*
X55126247Y-54277975D02*
X55173866Y-54182737D01*
X55173866Y-54182737D02*
X55173866Y-53992261D01*
X55173866Y-53992261D02*
X55126247Y-53897023D01*
X55126247Y-53897023D02*
X55078628Y-53849404D01*
X55078628Y-53849404D02*
X54983390Y-53801785D01*
X46988095Y-33204819D02*
X46988095Y-32204819D01*
X46988095Y-32681009D02*
X47559523Y-32681009D01*
X47559523Y-33204819D02*
X47559523Y-32204819D01*
X48559523Y-33204819D02*
X47988095Y-33204819D01*
X48273809Y-33204819D02*
X48273809Y-32204819D01*
X48273809Y-32204819D02*
X48178571Y-32347676D01*
X48178571Y-32347676D02*
X48083333Y-32442914D01*
X48083333Y-32442914D02*
X47988095Y-32490533D01*
X56833333Y-50079580D02*
X56785714Y-50127200D01*
X56785714Y-50127200D02*
X56642857Y-50174819D01*
X56642857Y-50174819D02*
X56547619Y-50174819D01*
X56547619Y-50174819D02*
X56404762Y-50127200D01*
X56404762Y-50127200D02*
X56309524Y-50031961D01*
X56309524Y-50031961D02*
X56261905Y-49936723D01*
X56261905Y-49936723D02*
X56214286Y-49746247D01*
X56214286Y-49746247D02*
X56214286Y-49603390D01*
X56214286Y-49603390D02*
X56261905Y-49412914D01*
X56261905Y-49412914D02*
X56309524Y-49317676D01*
X56309524Y-49317676D02*
X56404762Y-49222438D01*
X56404762Y-49222438D02*
X56547619Y-49174819D01*
X56547619Y-49174819D02*
X56642857Y-49174819D01*
X56642857Y-49174819D02*
X56785714Y-49222438D01*
X56785714Y-49222438D02*
X56833333Y-49270057D01*
X57738095Y-49174819D02*
X57261905Y-49174819D01*
X57261905Y-49174819D02*
X57214286Y-49651009D01*
X57214286Y-49651009D02*
X57261905Y-49603390D01*
X57261905Y-49603390D02*
X57357143Y-49555771D01*
X57357143Y-49555771D02*
X57595238Y-49555771D01*
X57595238Y-49555771D02*
X57690476Y-49603390D01*
X57690476Y-49603390D02*
X57738095Y-49651009D01*
X57738095Y-49651009D02*
X57785714Y-49746247D01*
X57785714Y-49746247D02*
X57785714Y-49984342D01*
X57785714Y-49984342D02*
X57738095Y-50079580D01*
X57738095Y-50079580D02*
X57690476Y-50127200D01*
X57690476Y-50127200D02*
X57595238Y-50174819D01*
X57595238Y-50174819D02*
X57357143Y-50174819D01*
X57357143Y-50174819D02*
X57261905Y-50127200D01*
X57261905Y-50127200D02*
X57214286Y-50079580D01*
X57738095Y-34806819D02*
X58309523Y-34806819D01*
X58023809Y-35806819D02*
X58023809Y-34806819D01*
X58642857Y-35806819D02*
X58642857Y-34806819D01*
X58642857Y-34806819D02*
X59023809Y-34806819D01*
X59023809Y-34806819D02*
X59119047Y-34854438D01*
X59119047Y-34854438D02*
X59166666Y-34902057D01*
X59166666Y-34902057D02*
X59214285Y-34997295D01*
X59214285Y-34997295D02*
X59214285Y-35140152D01*
X59214285Y-35140152D02*
X59166666Y-35235390D01*
X59166666Y-35235390D02*
X59119047Y-35283009D01*
X59119047Y-35283009D02*
X59023809Y-35330628D01*
X59023809Y-35330628D02*
X58642857Y-35330628D01*
X59595238Y-34902057D02*
X59642857Y-34854438D01*
X59642857Y-34854438D02*
X59738095Y-34806819D01*
X59738095Y-34806819D02*
X59976190Y-34806819D01*
X59976190Y-34806819D02*
X60071428Y-34854438D01*
X60071428Y-34854438D02*
X60119047Y-34902057D01*
X60119047Y-34902057D02*
X60166666Y-34997295D01*
X60166666Y-34997295D02*
X60166666Y-35092533D01*
X60166666Y-35092533D02*
X60119047Y-35235390D01*
X60119047Y-35235390D02*
X59547619Y-35806819D01*
X59547619Y-35806819D02*
X60166666Y-35806819D01*
X59519642Y-58954819D02*
X59186309Y-58478628D01*
X58948214Y-58954819D02*
X58948214Y-57954819D01*
X58948214Y-57954819D02*
X59329166Y-57954819D01*
X59329166Y-57954819D02*
X59424404Y-58002438D01*
X59424404Y-58002438D02*
X59472023Y-58050057D01*
X59472023Y-58050057D02*
X59519642Y-58145295D01*
X59519642Y-58145295D02*
X59519642Y-58288152D01*
X59519642Y-58288152D02*
X59472023Y-58383390D01*
X59472023Y-58383390D02*
X59424404Y-58431009D01*
X59424404Y-58431009D02*
X59329166Y-58478628D01*
X59329166Y-58478628D02*
X58948214Y-58478628D01*
X60472023Y-58954819D02*
X59900595Y-58954819D01*
X60186309Y-58954819D02*
X60186309Y-57954819D01*
X60186309Y-57954819D02*
X60091071Y-58097676D01*
X60091071Y-58097676D02*
X59995833Y-58192914D01*
X59995833Y-58192914D02*
X59900595Y-58240533D01*
X61424404Y-58954819D02*
X60852976Y-58954819D01*
X61138690Y-58954819D02*
X61138690Y-57954819D01*
X61138690Y-57954819D02*
X61043452Y-58097676D01*
X61043452Y-58097676D02*
X60948214Y-58192914D01*
X60948214Y-58192914D02*
X60852976Y-58240533D01*
X63194819Y-40595238D02*
X62718628Y-40928571D01*
X63194819Y-41166666D02*
X62194819Y-41166666D01*
X62194819Y-41166666D02*
X62194819Y-40785714D01*
X62194819Y-40785714D02*
X62242438Y-40690476D01*
X62242438Y-40690476D02*
X62290057Y-40642857D01*
X62290057Y-40642857D02*
X62385295Y-40595238D01*
X62385295Y-40595238D02*
X62528152Y-40595238D01*
X62528152Y-40595238D02*
X62623390Y-40642857D01*
X62623390Y-40642857D02*
X62671009Y-40690476D01*
X62671009Y-40690476D02*
X62718628Y-40785714D01*
X62718628Y-40785714D02*
X62718628Y-41166666D01*
X62194819Y-40309523D02*
X63194819Y-39976190D01*
X63194819Y-39976190D02*
X62194819Y-39642857D01*
X63194819Y-38785714D02*
X63194819Y-39357142D01*
X63194819Y-39071428D02*
X62194819Y-39071428D01*
X62194819Y-39071428D02*
X62337676Y-39166666D01*
X62337676Y-39166666D02*
X62432914Y-39261904D01*
X62432914Y-39261904D02*
X62480533Y-39357142D01*
X63488095Y-65704819D02*
X63488095Y-64704819D01*
X63488095Y-65181009D02*
X64059523Y-65181009D01*
X64059523Y-65704819D02*
X64059523Y-64704819D01*
X64964285Y-65038152D02*
X64964285Y-65704819D01*
X64726190Y-64657200D02*
X64488095Y-65371485D01*
X64488095Y-65371485D02*
X65107142Y-65371485D01*
X46333333Y-45704819D02*
X46000000Y-45228628D01*
X45761905Y-45704819D02*
X45761905Y-44704819D01*
X45761905Y-44704819D02*
X46142857Y-44704819D01*
X46142857Y-44704819D02*
X46238095Y-44752438D01*
X46238095Y-44752438D02*
X46285714Y-44800057D01*
X46285714Y-44800057D02*
X46333333Y-44895295D01*
X46333333Y-44895295D02*
X46333333Y-45038152D01*
X46333333Y-45038152D02*
X46285714Y-45133390D01*
X46285714Y-45133390D02*
X46238095Y-45181009D01*
X46238095Y-45181009D02*
X46142857Y-45228628D01*
X46142857Y-45228628D02*
X45761905Y-45228628D01*
X47190476Y-45038152D02*
X47190476Y-45704819D01*
X46952381Y-44657200D02*
X46714286Y-45371485D01*
X46714286Y-45371485D02*
X47333333Y-45371485D01*
X46833333Y-53204819D02*
X46500000Y-52728628D01*
X46261905Y-53204819D02*
X46261905Y-52204819D01*
X46261905Y-52204819D02*
X46642857Y-52204819D01*
X46642857Y-52204819D02*
X46738095Y-52252438D01*
X46738095Y-52252438D02*
X46785714Y-52300057D01*
X46785714Y-52300057D02*
X46833333Y-52395295D01*
X46833333Y-52395295D02*
X46833333Y-52538152D01*
X46833333Y-52538152D02*
X46785714Y-52633390D01*
X46785714Y-52633390D02*
X46738095Y-52681009D01*
X46738095Y-52681009D02*
X46642857Y-52728628D01*
X46642857Y-52728628D02*
X46261905Y-52728628D01*
X47738095Y-52204819D02*
X47261905Y-52204819D01*
X47261905Y-52204819D02*
X47214286Y-52681009D01*
X47214286Y-52681009D02*
X47261905Y-52633390D01*
X47261905Y-52633390D02*
X47357143Y-52585771D01*
X47357143Y-52585771D02*
X47595238Y-52585771D01*
X47595238Y-52585771D02*
X47690476Y-52633390D01*
X47690476Y-52633390D02*
X47738095Y-52681009D01*
X47738095Y-52681009D02*
X47785714Y-52776247D01*
X47785714Y-52776247D02*
X47785714Y-53014342D01*
X47785714Y-53014342D02*
X47738095Y-53109580D01*
X47738095Y-53109580D02*
X47690476Y-53157200D01*
X47690476Y-53157200D02*
X47595238Y-53204819D01*
X47595238Y-53204819D02*
X47357143Y-53204819D01*
X47357143Y-53204819D02*
X47261905Y-53157200D01*
X47261905Y-53157200D02*
X47214286Y-53109580D01*
X51959580Y-46004166D02*
X52007200Y-46051785D01*
X52007200Y-46051785D02*
X52054819Y-46194642D01*
X52054819Y-46194642D02*
X52054819Y-46289880D01*
X52054819Y-46289880D02*
X52007200Y-46432737D01*
X52007200Y-46432737D02*
X51911961Y-46527975D01*
X51911961Y-46527975D02*
X51816723Y-46575594D01*
X51816723Y-46575594D02*
X51626247Y-46623213D01*
X51626247Y-46623213D02*
X51483390Y-46623213D01*
X51483390Y-46623213D02*
X51292914Y-46575594D01*
X51292914Y-46575594D02*
X51197676Y-46527975D01*
X51197676Y-46527975D02*
X51102438Y-46432737D01*
X51102438Y-46432737D02*
X51054819Y-46289880D01*
X51054819Y-46289880D02*
X51054819Y-46194642D01*
X51054819Y-46194642D02*
X51102438Y-46051785D01*
X51102438Y-46051785D02*
X51150057Y-46004166D01*
X51054819Y-45670832D02*
X51054819Y-45051785D01*
X51054819Y-45051785D02*
X51435771Y-45385118D01*
X51435771Y-45385118D02*
X51435771Y-45242261D01*
X51435771Y-45242261D02*
X51483390Y-45147023D01*
X51483390Y-45147023D02*
X51531009Y-45099404D01*
X51531009Y-45099404D02*
X51626247Y-45051785D01*
X51626247Y-45051785D02*
X51864342Y-45051785D01*
X51864342Y-45051785D02*
X51959580Y-45099404D01*
X51959580Y-45099404D02*
X52007200Y-45147023D01*
X52007200Y-45147023D02*
X52054819Y-45242261D01*
X52054819Y-45242261D02*
X52054819Y-45527975D01*
X52054819Y-45527975D02*
X52007200Y-45623213D01*
X52007200Y-45623213D02*
X51959580Y-45670832D01*
X52920833Y-37304819D02*
X52587500Y-36828628D01*
X52349405Y-37304819D02*
X52349405Y-36304819D01*
X52349405Y-36304819D02*
X52730357Y-36304819D01*
X52730357Y-36304819D02*
X52825595Y-36352438D01*
X52825595Y-36352438D02*
X52873214Y-36400057D01*
X52873214Y-36400057D02*
X52920833Y-36495295D01*
X52920833Y-36495295D02*
X52920833Y-36638152D01*
X52920833Y-36638152D02*
X52873214Y-36733390D01*
X52873214Y-36733390D02*
X52825595Y-36781009D01*
X52825595Y-36781009D02*
X52730357Y-36828628D01*
X52730357Y-36828628D02*
X52349405Y-36828628D01*
X53777976Y-36304819D02*
X53587500Y-36304819D01*
X53587500Y-36304819D02*
X53492262Y-36352438D01*
X53492262Y-36352438D02*
X53444643Y-36400057D01*
X53444643Y-36400057D02*
X53349405Y-36542914D01*
X53349405Y-36542914D02*
X53301786Y-36733390D01*
X53301786Y-36733390D02*
X53301786Y-37114342D01*
X53301786Y-37114342D02*
X53349405Y-37209580D01*
X53349405Y-37209580D02*
X53397024Y-37257200D01*
X53397024Y-37257200D02*
X53492262Y-37304819D01*
X53492262Y-37304819D02*
X53682738Y-37304819D01*
X53682738Y-37304819D02*
X53777976Y-37257200D01*
X53777976Y-37257200D02*
X53825595Y-37209580D01*
X53825595Y-37209580D02*
X53873214Y-37114342D01*
X53873214Y-37114342D02*
X53873214Y-36876247D01*
X53873214Y-36876247D02*
X53825595Y-36781009D01*
X53825595Y-36781009D02*
X53777976Y-36733390D01*
X53777976Y-36733390D02*
X53682738Y-36685771D01*
X53682738Y-36685771D02*
X53492262Y-36685771D01*
X53492262Y-36685771D02*
X53397024Y-36733390D01*
X53397024Y-36733390D02*
X53349405Y-36781009D01*
X53349405Y-36781009D02*
X53301786Y-36876247D01*
X64904819Y-49761904D02*
X65714342Y-49761904D01*
X65714342Y-49761904D02*
X65809580Y-49714285D01*
X65809580Y-49714285D02*
X65857200Y-49666666D01*
X65857200Y-49666666D02*
X65904819Y-49571428D01*
X65904819Y-49571428D02*
X65904819Y-49380952D01*
X65904819Y-49380952D02*
X65857200Y-49285714D01*
X65857200Y-49285714D02*
X65809580Y-49238095D01*
X65809580Y-49238095D02*
X65714342Y-49190476D01*
X65714342Y-49190476D02*
X64904819Y-49190476D01*
X65000057Y-48761904D02*
X64952438Y-48714285D01*
X64952438Y-48714285D02*
X64904819Y-48619047D01*
X64904819Y-48619047D02*
X64904819Y-48380952D01*
X64904819Y-48380952D02*
X64952438Y-48285714D01*
X64952438Y-48285714D02*
X65000057Y-48238095D01*
X65000057Y-48238095D02*
X65095295Y-48190476D01*
X65095295Y-48190476D02*
X65190533Y-48190476D01*
X65190533Y-48190476D02*
X65333390Y-48238095D01*
X65333390Y-48238095D02*
X65904819Y-48809523D01*
X65904819Y-48809523D02*
X65904819Y-48190476D01*
X53911905Y-40954819D02*
X53911905Y-39954819D01*
X53911905Y-39954819D02*
X54150000Y-39954819D01*
X54150000Y-39954819D02*
X54292857Y-40002438D01*
X54292857Y-40002438D02*
X54388095Y-40097676D01*
X54388095Y-40097676D02*
X54435714Y-40192914D01*
X54435714Y-40192914D02*
X54483333Y-40383390D01*
X54483333Y-40383390D02*
X54483333Y-40526247D01*
X54483333Y-40526247D02*
X54435714Y-40716723D01*
X54435714Y-40716723D02*
X54388095Y-40811961D01*
X54388095Y-40811961D02*
X54292857Y-40907200D01*
X54292857Y-40907200D02*
X54150000Y-40954819D01*
X54150000Y-40954819D02*
X53911905Y-40954819D01*
X54816667Y-39954819D02*
X55435714Y-39954819D01*
X55435714Y-39954819D02*
X55102381Y-40335771D01*
X55102381Y-40335771D02*
X55245238Y-40335771D01*
X55245238Y-40335771D02*
X55340476Y-40383390D01*
X55340476Y-40383390D02*
X55388095Y-40431009D01*
X55388095Y-40431009D02*
X55435714Y-40526247D01*
X55435714Y-40526247D02*
X55435714Y-40764342D01*
X55435714Y-40764342D02*
X55388095Y-40859580D01*
X55388095Y-40859580D02*
X55340476Y-40907200D01*
X55340476Y-40907200D02*
X55245238Y-40954819D01*
X55245238Y-40954819D02*
X54959524Y-40954819D01*
X54959524Y-40954819D02*
X54864286Y-40907200D01*
X54864286Y-40907200D02*
X54816667Y-40859580D01*
X48199405Y-60354819D02*
X48199405Y-59354819D01*
X48199405Y-59354819D02*
X48437500Y-59354819D01*
X48437500Y-59354819D02*
X48580357Y-59402438D01*
X48580357Y-59402438D02*
X48675595Y-59497676D01*
X48675595Y-59497676D02*
X48723214Y-59592914D01*
X48723214Y-59592914D02*
X48770833Y-59783390D01*
X48770833Y-59783390D02*
X48770833Y-59926247D01*
X48770833Y-59926247D02*
X48723214Y-60116723D01*
X48723214Y-60116723D02*
X48675595Y-60211961D01*
X48675595Y-60211961D02*
X48580357Y-60307200D01*
X48580357Y-60307200D02*
X48437500Y-60354819D01*
X48437500Y-60354819D02*
X48199405Y-60354819D01*
X49151786Y-59450057D02*
X49199405Y-59402438D01*
X49199405Y-59402438D02*
X49294643Y-59354819D01*
X49294643Y-59354819D02*
X49532738Y-59354819D01*
X49532738Y-59354819D02*
X49627976Y-59402438D01*
X49627976Y-59402438D02*
X49675595Y-59450057D01*
X49675595Y-59450057D02*
X49723214Y-59545295D01*
X49723214Y-59545295D02*
X49723214Y-59640533D01*
X49723214Y-59640533D02*
X49675595Y-59783390D01*
X49675595Y-59783390D02*
X49104167Y-60354819D01*
X49104167Y-60354819D02*
X49723214Y-60354819D01*
X46988095Y-65704819D02*
X46988095Y-64704819D01*
X46988095Y-65181009D02*
X47559523Y-65181009D01*
X47559523Y-65704819D02*
X47559523Y-64704819D01*
X47940476Y-64704819D02*
X48559523Y-64704819D01*
X48559523Y-64704819D02*
X48226190Y-65085771D01*
X48226190Y-65085771D02*
X48369047Y-65085771D01*
X48369047Y-65085771D02*
X48464285Y-65133390D01*
X48464285Y-65133390D02*
X48511904Y-65181009D01*
X48511904Y-65181009D02*
X48559523Y-65276247D01*
X48559523Y-65276247D02*
X48559523Y-65514342D01*
X48559523Y-65514342D02*
X48511904Y-65609580D01*
X48511904Y-65609580D02*
X48464285Y-65657200D01*
X48464285Y-65657200D02*
X48369047Y-65704819D01*
X48369047Y-65704819D02*
X48083333Y-65704819D01*
X48083333Y-65704819D02*
X47988095Y-65657200D01*
X47988095Y-65657200D02*
X47940476Y-65609580D01*
X44454819Y-38416666D02*
X43978628Y-38749999D01*
X44454819Y-38988094D02*
X43454819Y-38988094D01*
X43454819Y-38988094D02*
X43454819Y-38607142D01*
X43454819Y-38607142D02*
X43502438Y-38511904D01*
X43502438Y-38511904D02*
X43550057Y-38464285D01*
X43550057Y-38464285D02*
X43645295Y-38416666D01*
X43645295Y-38416666D02*
X43788152Y-38416666D01*
X43788152Y-38416666D02*
X43883390Y-38464285D01*
X43883390Y-38464285D02*
X43931009Y-38511904D01*
X43931009Y-38511904D02*
X43978628Y-38607142D01*
X43978628Y-38607142D02*
X43978628Y-38988094D01*
X43550057Y-38035713D02*
X43502438Y-37988094D01*
X43502438Y-37988094D02*
X43454819Y-37892856D01*
X43454819Y-37892856D02*
X43454819Y-37654761D01*
X43454819Y-37654761D02*
X43502438Y-37559523D01*
X43502438Y-37559523D02*
X43550057Y-37511904D01*
X43550057Y-37511904D02*
X43645295Y-37464285D01*
X43645295Y-37464285D02*
X43740533Y-37464285D01*
X43740533Y-37464285D02*
X43883390Y-37511904D01*
X43883390Y-37511904D02*
X44454819Y-38083332D01*
X44454819Y-38083332D02*
X44454819Y-37464285D01*
X57738095Y-43454819D02*
X58309523Y-43454819D01*
X58023809Y-44454819D02*
X58023809Y-43454819D01*
X58642857Y-44454819D02*
X58642857Y-43454819D01*
X58642857Y-43454819D02*
X59023809Y-43454819D01*
X59023809Y-43454819D02*
X59119047Y-43502438D01*
X59119047Y-43502438D02*
X59166666Y-43550057D01*
X59166666Y-43550057D02*
X59214285Y-43645295D01*
X59214285Y-43645295D02*
X59214285Y-43788152D01*
X59214285Y-43788152D02*
X59166666Y-43883390D01*
X59166666Y-43883390D02*
X59119047Y-43931009D01*
X59119047Y-43931009D02*
X59023809Y-43978628D01*
X59023809Y-43978628D02*
X58642857Y-43978628D01*
X60166666Y-44454819D02*
X59595238Y-44454819D01*
X59880952Y-44454819D02*
X59880952Y-43454819D01*
X59880952Y-43454819D02*
X59785714Y-43597676D01*
X59785714Y-43597676D02*
X59690476Y-43692914D01*
X59690476Y-43692914D02*
X59595238Y-43740533D01*
X74666666Y-42264819D02*
X74666666Y-42979104D01*
X74666666Y-42979104D02*
X74619047Y-43121961D01*
X74619047Y-43121961D02*
X74523809Y-43217200D01*
X74523809Y-43217200D02*
X74380952Y-43264819D01*
X74380952Y-43264819D02*
X74285714Y-43264819D01*
X75047619Y-42264819D02*
X75666666Y-42264819D01*
X75666666Y-42264819D02*
X75333333Y-42645771D01*
X75333333Y-42645771D02*
X75476190Y-42645771D01*
X75476190Y-42645771D02*
X75571428Y-42693390D01*
X75571428Y-42693390D02*
X75619047Y-42741009D01*
X75619047Y-42741009D02*
X75666666Y-42836247D01*
X75666666Y-42836247D02*
X75666666Y-43074342D01*
X75666666Y-43074342D02*
X75619047Y-43169580D01*
X75619047Y-43169580D02*
X75571428Y-43217200D01*
X75571428Y-43217200D02*
X75476190Y-43264819D01*
X75476190Y-43264819D02*
X75190476Y-43264819D01*
X75190476Y-43264819D02*
X75095238Y-43217200D01*
X75095238Y-43217200D02*
X75047619Y-43169580D01*
X63194819Y-58595238D02*
X62718628Y-58928571D01*
X63194819Y-59166666D02*
X62194819Y-59166666D01*
X62194819Y-59166666D02*
X62194819Y-58785714D01*
X62194819Y-58785714D02*
X62242438Y-58690476D01*
X62242438Y-58690476D02*
X62290057Y-58642857D01*
X62290057Y-58642857D02*
X62385295Y-58595238D01*
X62385295Y-58595238D02*
X62528152Y-58595238D01*
X62528152Y-58595238D02*
X62623390Y-58642857D01*
X62623390Y-58642857D02*
X62671009Y-58690476D01*
X62671009Y-58690476D02*
X62718628Y-58785714D01*
X62718628Y-58785714D02*
X62718628Y-59166666D01*
X62194819Y-58309523D02*
X63194819Y-57976190D01*
X63194819Y-57976190D02*
X62194819Y-57642857D01*
X62290057Y-57357142D02*
X62242438Y-57309523D01*
X62242438Y-57309523D02*
X62194819Y-57214285D01*
X62194819Y-57214285D02*
X62194819Y-56976190D01*
X62194819Y-56976190D02*
X62242438Y-56880952D01*
X62242438Y-56880952D02*
X62290057Y-56833333D01*
X62290057Y-56833333D02*
X62385295Y-56785714D01*
X62385295Y-56785714D02*
X62480533Y-56785714D01*
X62480533Y-56785714D02*
X62623390Y-56833333D01*
X62623390Y-56833333D02*
X63194819Y-57404761D01*
X63194819Y-57404761D02*
X63194819Y-56785714D01*
X50904819Y-49761904D02*
X51714342Y-49761904D01*
X51714342Y-49761904D02*
X51809580Y-49714285D01*
X51809580Y-49714285D02*
X51857200Y-49666666D01*
X51857200Y-49666666D02*
X51904819Y-49571428D01*
X51904819Y-49571428D02*
X51904819Y-49380952D01*
X51904819Y-49380952D02*
X51857200Y-49285714D01*
X51857200Y-49285714D02*
X51809580Y-49238095D01*
X51809580Y-49238095D02*
X51714342Y-49190476D01*
X51714342Y-49190476D02*
X50904819Y-49190476D01*
X51904819Y-48190476D02*
X51904819Y-48761904D01*
X51904819Y-48476190D02*
X50904819Y-48476190D01*
X50904819Y-48476190D02*
X51047676Y-48571428D01*
X51047676Y-48571428D02*
X51142914Y-48666666D01*
X51142914Y-48666666D02*
X51190533Y-48761904D01*
X58238095Y-53954819D02*
X58809523Y-53954819D01*
X58523809Y-54954819D02*
X58523809Y-53954819D01*
X59142857Y-54954819D02*
X59142857Y-53954819D01*
X59142857Y-53954819D02*
X59523809Y-53954819D01*
X59523809Y-53954819D02*
X59619047Y-54002438D01*
X59619047Y-54002438D02*
X59666666Y-54050057D01*
X59666666Y-54050057D02*
X59714285Y-54145295D01*
X59714285Y-54145295D02*
X59714285Y-54288152D01*
X59714285Y-54288152D02*
X59666666Y-54383390D01*
X59666666Y-54383390D02*
X59619047Y-54431009D01*
X59619047Y-54431009D02*
X59523809Y-54478628D01*
X59523809Y-54478628D02*
X59142857Y-54478628D01*
X60047619Y-53954819D02*
X60666666Y-53954819D01*
X60666666Y-53954819D02*
X60333333Y-54335771D01*
X60333333Y-54335771D02*
X60476190Y-54335771D01*
X60476190Y-54335771D02*
X60571428Y-54383390D01*
X60571428Y-54383390D02*
X60619047Y-54431009D01*
X60619047Y-54431009D02*
X60666666Y-54526247D01*
X60666666Y-54526247D02*
X60666666Y-54764342D01*
X60666666Y-54764342D02*
X60619047Y-54859580D01*
X60619047Y-54859580D02*
X60571428Y-54907200D01*
X60571428Y-54907200D02*
X60476190Y-54954819D01*
X60476190Y-54954819D02*
X60190476Y-54954819D01*
X60190476Y-54954819D02*
X60095238Y-54907200D01*
X60095238Y-54907200D02*
X60047619Y-54859580D01*
X53283333Y-50079580D02*
X53235714Y-50127200D01*
X53235714Y-50127200D02*
X53092857Y-50174819D01*
X53092857Y-50174819D02*
X52997619Y-50174819D01*
X52997619Y-50174819D02*
X52854762Y-50127200D01*
X52854762Y-50127200D02*
X52759524Y-50031961D01*
X52759524Y-50031961D02*
X52711905Y-49936723D01*
X52711905Y-49936723D02*
X52664286Y-49746247D01*
X52664286Y-49746247D02*
X52664286Y-49603390D01*
X52664286Y-49603390D02*
X52711905Y-49412914D01*
X52711905Y-49412914D02*
X52759524Y-49317676D01*
X52759524Y-49317676D02*
X52854762Y-49222438D01*
X52854762Y-49222438D02*
X52997619Y-49174819D01*
X52997619Y-49174819D02*
X53092857Y-49174819D01*
X53092857Y-49174819D02*
X53235714Y-49222438D01*
X53235714Y-49222438D02*
X53283333Y-49270057D01*
X54235714Y-50174819D02*
X53664286Y-50174819D01*
X53950000Y-50174819D02*
X53950000Y-49174819D01*
X53950000Y-49174819D02*
X53854762Y-49317676D01*
X53854762Y-49317676D02*
X53759524Y-49412914D01*
X53759524Y-49412914D02*
X53664286Y-49460533D01*
X53911905Y-60204819D02*
X53911905Y-59204819D01*
X53911905Y-59204819D02*
X54150000Y-59204819D01*
X54150000Y-59204819D02*
X54292857Y-59252438D01*
X54292857Y-59252438D02*
X54388095Y-59347676D01*
X54388095Y-59347676D02*
X54435714Y-59442914D01*
X54435714Y-59442914D02*
X54483333Y-59633390D01*
X54483333Y-59633390D02*
X54483333Y-59776247D01*
X54483333Y-59776247D02*
X54435714Y-59966723D01*
X54435714Y-59966723D02*
X54388095Y-60061961D01*
X54388095Y-60061961D02*
X54292857Y-60157200D01*
X54292857Y-60157200D02*
X54150000Y-60204819D01*
X54150000Y-60204819D02*
X53911905Y-60204819D01*
X55340476Y-59538152D02*
X55340476Y-60204819D01*
X55102381Y-59157200D02*
X54864286Y-59871485D01*
X54864286Y-59871485D02*
X55483333Y-59871485D01*
X51959580Y-54754166D02*
X52007200Y-54801785D01*
X52007200Y-54801785D02*
X52054819Y-54944642D01*
X52054819Y-54944642D02*
X52054819Y-55039880D01*
X52054819Y-55039880D02*
X52007200Y-55182737D01*
X52007200Y-55182737D02*
X51911961Y-55277975D01*
X51911961Y-55277975D02*
X51816723Y-55325594D01*
X51816723Y-55325594D02*
X51626247Y-55373213D01*
X51626247Y-55373213D02*
X51483390Y-55373213D01*
X51483390Y-55373213D02*
X51292914Y-55325594D01*
X51292914Y-55325594D02*
X51197676Y-55277975D01*
X51197676Y-55277975D02*
X51102438Y-55182737D01*
X51102438Y-55182737D02*
X51054819Y-55039880D01*
X51054819Y-55039880D02*
X51054819Y-54944642D01*
X51054819Y-54944642D02*
X51102438Y-54801785D01*
X51102438Y-54801785D02*
X51150057Y-54754166D01*
X51388152Y-53897023D02*
X52054819Y-53897023D01*
X51007200Y-54135118D02*
X51721485Y-54373213D01*
X51721485Y-54373213D02*
X51721485Y-53754166D01*
X52170833Y-60304819D02*
X51837500Y-59828628D01*
X51599405Y-60304819D02*
X51599405Y-59304819D01*
X51599405Y-59304819D02*
X51980357Y-59304819D01*
X51980357Y-59304819D02*
X52075595Y-59352438D01*
X52075595Y-59352438D02*
X52123214Y-59400057D01*
X52123214Y-59400057D02*
X52170833Y-59495295D01*
X52170833Y-59495295D02*
X52170833Y-59638152D01*
X52170833Y-59638152D02*
X52123214Y-59733390D01*
X52123214Y-59733390D02*
X52075595Y-59781009D01*
X52075595Y-59781009D02*
X51980357Y-59828628D01*
X51980357Y-59828628D02*
X51599405Y-59828628D01*
X52504167Y-59304819D02*
X53170833Y-59304819D01*
X53170833Y-59304819D02*
X52742262Y-60304819D01*
X42566666Y-51454819D02*
X42566666Y-52169104D01*
X42566666Y-52169104D02*
X42519047Y-52311961D01*
X42519047Y-52311961D02*
X42423809Y-52407200D01*
X42423809Y-52407200D02*
X42280952Y-52454819D01*
X42280952Y-52454819D02*
X42185714Y-52454819D01*
X43042857Y-52454819D02*
X43042857Y-51454819D01*
X43042857Y-51454819D02*
X43423809Y-51454819D01*
X43423809Y-51454819D02*
X43519047Y-51502438D01*
X43519047Y-51502438D02*
X43566666Y-51550057D01*
X43566666Y-51550057D02*
X43614285Y-51645295D01*
X43614285Y-51645295D02*
X43614285Y-51788152D01*
X43614285Y-51788152D02*
X43566666Y-51883390D01*
X43566666Y-51883390D02*
X43519047Y-51931009D01*
X43519047Y-51931009D02*
X43423809Y-51978628D01*
X43423809Y-51978628D02*
X43042857Y-51978628D01*
X44566666Y-52454819D02*
X43995238Y-52454819D01*
X44280952Y-52454819D02*
X44280952Y-51454819D01*
X44280952Y-51454819D02*
X44185714Y-51597676D01*
X44185714Y-51597676D02*
X44090476Y-51692914D01*
X44090476Y-51692914D02*
X43995238Y-51740533D01*
%TO.C,J2*%
D10*
X31380000Y-56130000D02*
X39220000Y-56130000D01*
X31380000Y-57700000D02*
X31380000Y-56130000D01*
X31380000Y-63370000D02*
X31380000Y-58300000D01*
X31900000Y-56130000D02*
X31900000Y-63370000D01*
X33000000Y-56130000D02*
X33000000Y-63370000D01*
X39220000Y-56130000D02*
X39220000Y-63370000D01*
X39220000Y-63370000D02*
X31380000Y-63370000D01*
X31380000Y-58000000D02*
X30770000Y-58440000D01*
X30770000Y-57560000D01*
X31380000Y-58000000D01*
G36*
X31380000Y-58000000D02*
G01*
X30770000Y-58440000D01*
X30770000Y-57560000D01*
X31380000Y-58000000D01*
G37*
%TO.C,C2*%
X67038748Y-50515000D02*
X67561252Y-50515000D01*
X67038748Y-51985000D02*
X67561252Y-51985000D01*
%TO.C,R10*%
X59935436Y-40265000D02*
X60389564Y-40265000D01*
X59935436Y-41735000D02*
X60389564Y-41735000D01*
%TO.C,TP5*%
X69200000Y-46250000D02*
G75*
G02*
X67300000Y-46250000I-950000J0D01*
G01*
X67300000Y-46250000D02*
G75*
G02*
X69200000Y-46250000I950000J0D01*
G01*
%TO.C,D1*%
X48177500Y-38190000D02*
X49697500Y-38190000D01*
X48177500Y-39190000D02*
X48177500Y-38190000D01*
X48177500Y-41310000D02*
X48177500Y-40310000D01*
X49697500Y-38190000D02*
X49697500Y-38240000D01*
X49697500Y-39360000D02*
X49697500Y-40140000D01*
X49697500Y-41260000D02*
X49697500Y-41310000D01*
X49697500Y-41310000D02*
X48177500Y-41310000D01*
X50237500Y-40130000D02*
X49997500Y-39800000D01*
X50477500Y-39800000D01*
X50237500Y-40130000D01*
G36*
X50237500Y-40130000D02*
G01*
X49997500Y-39800000D01*
X50477500Y-39800000D01*
X50237500Y-40130000D01*
G37*
%TO.C,TP4*%
X59950000Y-61250000D02*
G75*
G02*
X58050000Y-61250000I-950000J0D01*
G01*
X58050000Y-61250000D02*
G75*
G02*
X59950000Y-61250000I950000J0D01*
G01*
%TO.C,R3*%
X40290000Y-57267064D02*
X40290000Y-55812936D01*
X42110000Y-57267064D02*
X42110000Y-55812936D01*
%TO.C,R1*%
X40290000Y-40732936D02*
X40290000Y-42187064D01*
X42110000Y-40732936D02*
X42110000Y-42187064D01*
%TO.C,R8*%
X56015000Y-46064564D02*
X56015000Y-45610436D01*
X57485000Y-46064564D02*
X57485000Y-45610436D01*
%TO.C,J1*%
X31380000Y-38130000D02*
X39220000Y-38130000D01*
X31380000Y-39700000D02*
X31380000Y-38130000D01*
X31380000Y-45370000D02*
X31380000Y-40300000D01*
X31900000Y-38130000D02*
X31900000Y-45370000D01*
X33000000Y-38130000D02*
X33000000Y-45370000D01*
X39220000Y-38130000D02*
X39220000Y-45370000D01*
X39220000Y-45370000D02*
X31380000Y-45370000D01*
X31380000Y-40000000D02*
X30770000Y-40440000D01*
X30770000Y-39560000D01*
X31380000Y-40000000D01*
G36*
X31380000Y-40000000D02*
G01*
X30770000Y-40440000D01*
X30770000Y-39560000D01*
X31380000Y-40000000D01*
G37*
%TO.C,R9*%
X56015000Y-54814564D02*
X56015000Y-54360436D01*
X57485000Y-54814564D02*
X57485000Y-54360436D01*
%TO.C,C5*%
X56738748Y-50665000D02*
X57261252Y-50665000D01*
X56738748Y-52135000D02*
X57261252Y-52135000D01*
%TO.C,TP2*%
X59950000Y-37000000D02*
G75*
G02*
X58050000Y-37000000I-950000J0D01*
G01*
X58050000Y-37000000D02*
G75*
G02*
X59950000Y-37000000I950000J0D01*
G01*
%TO.C,R11*%
X59935436Y-55965000D02*
X60389564Y-55965000D01*
X59935436Y-57435000D02*
X60389564Y-57435000D01*
%TO.C,RV1*%
X65525000Y-41715000D02*
X65525000Y-38285000D01*
X67010000Y-36715000D02*
X70065000Y-36715000D01*
X70065000Y-36715000D02*
X70065000Y-39175000D01*
X70065000Y-40825000D02*
X70065000Y-43285000D01*
X70065000Y-43285000D02*
X67010000Y-43285000D01*
%TO.C,R4*%
X46772936Y-42865000D02*
X47227064Y-42865000D01*
X46772936Y-44335000D02*
X47227064Y-44335000D01*
%TO.C,R5*%
X46772936Y-53665000D02*
X47227064Y-53665000D01*
X46772936Y-55135000D02*
X47227064Y-55135000D01*
%TO.C,C3*%
X52545000Y-46098752D02*
X52545000Y-45576248D01*
X54015000Y-46098752D02*
X54015000Y-45576248D01*
%TO.C,R6*%
X52860436Y-37765000D02*
X53314564Y-37765000D01*
X52860436Y-39235000D02*
X53314564Y-39235000D01*
%TO.C,U2*%
X61390000Y-47390000D02*
X61565000Y-47390000D01*
X61390000Y-50610000D02*
X61390000Y-47390000D01*
X61565000Y-50610000D02*
X61390000Y-50610000D01*
X64435000Y-47390000D02*
X64610000Y-47390000D01*
X64610000Y-47390000D02*
X64610000Y-50610000D01*
X64610000Y-50610000D02*
X64435000Y-50610000D01*
X64440000Y-46840000D02*
X64770000Y-46600000D01*
X64770000Y-47080000D01*
X64440000Y-46840000D01*
G36*
X64770000Y-47080000D02*
G01*
X64440000Y-46840000D01*
X64770000Y-46600000D01*
X64770000Y-47080000D01*
G37*
%TO.C,D3*%
X57010000Y-41500000D02*
X53000000Y-41500000D01*
X57010000Y-43500000D02*
X53000000Y-43500000D01*
X57010000Y-43500000D02*
X57010000Y-41500000D01*
%TO.C,D2*%
X48177500Y-55940000D02*
X49697500Y-55940000D01*
X48177500Y-56940000D02*
X48177500Y-55940000D01*
X48177500Y-59060000D02*
X48177500Y-58060000D01*
X49697500Y-55940000D02*
X49697500Y-55990000D01*
X49697500Y-57110000D02*
X49697500Y-57890000D01*
X49697500Y-59010000D02*
X49697500Y-59060000D01*
X49697500Y-59060000D02*
X48177500Y-59060000D01*
X50237500Y-57880000D02*
X49997500Y-57550000D01*
X50477500Y-57550000D01*
X50237500Y-57880000D01*
G36*
X50237500Y-57880000D02*
G01*
X49997500Y-57550000D01*
X50477500Y-57550000D01*
X50237500Y-57880000D01*
G37*
%TO.C,R2*%
X43090000Y-40732936D02*
X43090000Y-42187064D01*
X44910000Y-40732936D02*
X44910000Y-42187064D01*
%TO.C,TP1*%
X62700000Y-44000000D02*
G75*
G02*
X60800000Y-44000000I-950000J0D01*
G01*
X60800000Y-44000000D02*
G75*
G02*
X62700000Y-44000000I950000J0D01*
G01*
%TO.C,J3*%
X73620000Y-43810000D02*
X75000000Y-43810000D01*
X73620000Y-45190000D02*
X73620000Y-43810000D01*
X73620000Y-46460000D02*
X73620000Y-54190000D01*
X73620000Y-46460000D02*
X76380000Y-46460000D01*
X73620000Y-54190000D02*
X76380000Y-54190000D01*
X76380000Y-46460000D02*
X76380000Y-54190000D01*
%TO.C,RV2*%
X65525000Y-59715000D02*
X65525000Y-56285000D01*
X67010000Y-54715000D02*
X70065000Y-54715000D01*
X70065000Y-54715000D02*
X70065000Y-57175000D01*
X70065000Y-58825000D02*
X70065000Y-61285000D01*
X70065000Y-61285000D02*
X67010000Y-61285000D01*
%TO.C,U1*%
X47390000Y-47390000D02*
X47565000Y-47390000D01*
X47390000Y-50610000D02*
X47390000Y-47390000D01*
X47565000Y-50610000D02*
X47390000Y-50610000D01*
X50435000Y-47390000D02*
X50610000Y-47390000D01*
X50610000Y-47390000D02*
X50610000Y-50610000D01*
X50610000Y-50610000D02*
X50435000Y-50610000D01*
X50440000Y-46840000D02*
X50770000Y-46600000D01*
X50770000Y-47080000D01*
X50440000Y-46840000D01*
G36*
X50770000Y-47080000D02*
G01*
X50440000Y-46840000D01*
X50770000Y-46600000D01*
X50770000Y-47080000D01*
G37*
%TO.C,TP3*%
X63150000Y-54000000D02*
G75*
G02*
X61250000Y-54000000I-950000J0D01*
G01*
X61250000Y-54000000D02*
G75*
G02*
X63150000Y-54000000I950000J0D01*
G01*
%TO.C,C1*%
X53188748Y-50665000D02*
X53711252Y-50665000D01*
X53188748Y-52135000D02*
X53711252Y-52135000D01*
%TO.C,D4*%
X57010000Y-56750000D02*
X53000000Y-56750000D01*
X57010000Y-58750000D02*
X53000000Y-58750000D01*
X57010000Y-58750000D02*
X57010000Y-56750000D01*
%TO.C,C4*%
X52545000Y-54848752D02*
X52545000Y-54326248D01*
X54015000Y-54848752D02*
X54015000Y-54326248D01*
%TO.C,R7*%
X52110436Y-60765000D02*
X52564564Y-60765000D01*
X52110436Y-62235000D02*
X52564564Y-62235000D01*
%TO.C,JP1*%
X42020000Y-45520000D02*
X43400000Y-45520000D01*
X42020000Y-46900000D02*
X42020000Y-45520000D01*
X42020000Y-48170000D02*
X42020000Y-50820000D01*
X42020000Y-48170000D02*
X44780000Y-48170000D01*
X42020000Y-50820000D02*
X44780000Y-50820000D01*
X44780000Y-48170000D02*
X44780000Y-50820000D01*
%TD*%
M02*
