%TF.GenerationSoftware,KiCad,Pcbnew,10.0.5*%
%TF.CreationDate,2026-08-26T23:26:56+01:00*%
%TF.ProjectId,bazauto-block-detection,62617a61-7574-46f2-9d62-6c6f636b2d64,rev?*%
%TF.SameCoordinates,Original*%
%TF.FileFunction,Paste,Top*%
%TF.FilePolarity,Positive*%
%FSLAX46Y46*%
G04 Gerber Fmt 4.6, Leading zero omitted, Abs format (unit mm)*
G04 Created by KiCad (PCBNEW 10.0.5) date 2026-08-26 23:26:56*
%MOMM*%
%LPD*%
G01*
G04 APERTURE LIST*
G04 Aperture macros list*
%AMRoundRect*
0 Rectangle with rounded corners*
0 $1 Rounding radius*
0 $2 $3 $4 $5 $6 $7 $8 $9 X,Y pos of 4 corners*
0 Add a 4 corners polygon primitive as box body*
4,1,4,$2,$3,$4,$5,$6,$7,$8,$9,$2,$3,0*
0 Add four circle primitives for the rounded corners*
1,1,$1+$1,$2,$3*
1,1,$1+$1,$4,$5*
1,1,$1+$1,$6,$7*
1,1,$1+$1,$8,$9*
0 Add four rect primitives between the rounded corners*
20,1,$1+$1,$2,$3,$4,$5,0*
20,1,$1+$1,$4,$5,$6,$7,0*
20,1,$1+$1,$6,$7,$8,$9,0*
20,1,$1+$1,$8,$9,$2,$3,0*%
G04 Aperture macros list end*
%ADD10RoundRect,0.250000X-0.250000X-0.475000X0.250000X-0.475000X0.250000X0.475000X-0.250000X0.475000X0*%
%ADD11RoundRect,0.250000X-0.262500X-0.450000X0.262500X-0.450000X0.262500X0.450000X-0.262500X0.450000X0*%
%ADD12RoundRect,0.150000X0.587500X0.150000X-0.587500X0.150000X-0.587500X-0.150000X0.587500X-0.150000X0*%
%ADD13RoundRect,0.250000X0.625000X-0.312500X0.625000X0.312500X-0.625000X0.312500X-0.625000X-0.312500X0*%
%ADD14RoundRect,0.250000X-0.625000X0.312500X-0.625000X-0.312500X0.625000X-0.312500X0.625000X0.312500X0*%
%ADD15RoundRect,0.250000X0.450000X-0.262500X0.450000X0.262500X-0.450000X0.262500X-0.450000X-0.262500X0*%
%ADD16RoundRect,0.250000X1.145000X-0.345000X1.145000X0.345000X-1.145000X0.345000X-1.145000X-0.345000X0*%
%ADD17RoundRect,0.250000X0.475000X-0.250000X0.475000X0.250000X-0.475000X0.250000X-0.475000X-0.250000X0*%
%ADD18RoundRect,0.100000X-0.100000X0.712500X-0.100000X-0.712500X0.100000X-0.712500X0.100000X0.712500X0*%
%ADD19RoundRect,0.225000X0.225000X0.375000X-0.225000X0.375000X-0.225000X-0.375000X0.225000X-0.375000X0*%
G04 APERTURE END LIST*
D10*
%TO.C,C2*%
X66350000Y-51250000D03*
X68250000Y-51250000D03*
%TD*%
D11*
%TO.C,R10*%
X59250000Y-41000000D03*
X61075000Y-41000000D03*
%TD*%
D12*
%TO.C,D1*%
X49875000Y-40700000D03*
X49875000Y-38800000D03*
X48000000Y-39750000D03*
%TD*%
D13*
%TO.C,R3*%
X41200000Y-58002500D03*
X41200000Y-55077500D03*
%TD*%
D14*
%TO.C,R1*%
X41200000Y-39997500D03*
X41200000Y-42922500D03*
%TD*%
D15*
%TO.C,R8*%
X56750000Y-46750000D03*
X56750000Y-44925000D03*
%TD*%
%TO.C,R9*%
X56750000Y-55500000D03*
X56750000Y-53675000D03*
%TD*%
D10*
%TO.C,C5*%
X56050000Y-51400000D03*
X57950000Y-51400000D03*
%TD*%
D11*
%TO.C,R11*%
X59250000Y-56700000D03*
X61075000Y-56700000D03*
%TD*%
D16*
%TO.C,RV1*%
X65385000Y-37460000D03*
X70215000Y-40000000D03*
X65385000Y-42540000D03*
%TD*%
D11*
%TO.C,R4*%
X46087500Y-43600000D03*
X47912500Y-43600000D03*
%TD*%
%TO.C,R5*%
X46087500Y-54400000D03*
X47912500Y-54400000D03*
%TD*%
D17*
%TO.C,C3*%
X53280000Y-46787500D03*
X53280000Y-44887500D03*
%TD*%
D11*
%TO.C,R6*%
X52175000Y-38500000D03*
X54000000Y-38500000D03*
%TD*%
D18*
%TO.C,U2*%
X63975000Y-46887500D03*
X63325000Y-46887500D03*
X62675000Y-46887500D03*
X62025000Y-46887500D03*
X62025000Y-51112500D03*
X62675000Y-51112500D03*
X63325000Y-51112500D03*
X63975000Y-51112500D03*
%TD*%
D19*
%TO.C,D3*%
X56300000Y-42500000D03*
X53000000Y-42500000D03*
%TD*%
D12*
%TO.C,D2*%
X49875000Y-58450000D03*
X49875000Y-56550000D03*
X48000000Y-57500000D03*
%TD*%
D14*
%TO.C,R2*%
X44000000Y-39997500D03*
X44000000Y-42922500D03*
%TD*%
D16*
%TO.C,RV2*%
X65385000Y-55460000D03*
X70215000Y-58000000D03*
X65385000Y-60540000D03*
%TD*%
D18*
%TO.C,U1*%
X49975000Y-46887500D03*
X49325000Y-46887500D03*
X48675000Y-46887500D03*
X48025000Y-46887500D03*
X48025000Y-51112500D03*
X48675000Y-51112500D03*
X49325000Y-51112500D03*
X49975000Y-51112500D03*
%TD*%
D10*
%TO.C,C1*%
X52500000Y-51400000D03*
X54400000Y-51400000D03*
%TD*%
D19*
%TO.C,D4*%
X56300000Y-57750000D03*
X53000000Y-57750000D03*
%TD*%
D17*
%TO.C,C4*%
X53280000Y-55537500D03*
X53280000Y-53637500D03*
%TD*%
D11*
%TO.C,R7*%
X51425000Y-61500000D03*
X53250000Y-61500000D03*
%TD*%
M02*
