M48
; DRILL file KiCad 10.0.5 date 2026-08-26T23:27:00
; FORMAT={-:-/ absolute / metric / decimal}
; #@! TF.CreationDate,2026-08-26T23:27:00+01:00
; #@! TF.GenerationSoftware,Kicad,Pcbnew,10.0.5
; #@! TF.FileFunction,Plated,1,2,PTH
FMAT,2
METRIC
; #@! TA.AperFunction,Plated,PTH,ViaDrill
T1C0.300
; #@! TA.AperFunction,Plated,PTH,ViaDrill
T2C0.400
; #@! TA.AperFunction,Plated,PTH,ComponentDrill
T3C1.000
; #@! TA.AperFunction,Plated,PTH,ComponentDrill
T4C1.200
%
G90
G05
T1
X50.2Y-52.0
X50.2Y-54.0
X51.5Y-52.75
X51.5Y-56.2
X61.9Y-52.6
X63.45Y-52.6
X72.2Y-48.3
X73.8Y-48.3
T2
X39.0Y-36.0
X39.0Y-49.2
X39.0Y-64.0
X41.2Y-44.4
X41.2Y-53.6
X42.0Y-52.0
X42.0Y-62.5
X46.8Y-46.888
X49.878Y-59.8
X51.4Y-40.7
X54.0Y-32.6
X54.0Y-65.8
X54.4Y-50.5
X54.55Y-44.888
X54.55Y-53.638
X56.75Y-43.9
X56.75Y-52.6
X57.95Y-50.5
X58.0Y-65.8
X60.8Y-46.888
X61.0Y-32.6
X61.0Y-65.8
X65.385Y-40.5
X65.385Y-59.0
X66.0Y-32.6
X66.0Y-65.8
X68.25Y-50.3
X69.6Y-46.25
X74.0Y-32.6
X74.0Y-65.8
T3
X43.4Y-46.9
X43.4Y-49.44
X75.0Y-45.19
X75.0Y-47.73
X75.0Y-50.27
X75.0Y-52.81
T4
X36.0Y-40.0
X36.0Y-43.5
X36.0Y-58.0
X36.0Y-61.5
M30
